<svg xmlns="http://www.w3.org/2000/svg" width="259" height="154" fill="none"><g filter="url(#a)"><rect width="100" height="110" x="157" y="1" fill="#fff" rx="7.881"/><rect width="99.672" height="109.672" x="157.164" y="1.164" stroke="#EEE" stroke-width=".328" rx="7.716"/><rect width="85.373" height="49.582" x="164.314" y="9.045" fill="#F9F9FB" rx="5.09"/><rect width="85.373" height="49.582" x="164.314" y="9.045" stroke="#EEE" stroke-width=".328" rx="5.09"/><path fill="#F9F9FB" d="M164.88 66.672h20v6h-20zm0 11.253h76v6h-76zm0 8h76v6h-76zm0 8h76v6h-76z"/></g><g filter="url(#b)"><rect width="100" height="110" x="1" y="1" fill="#fff" rx="7.881"/><rect width="99.672" height="109.672" x="1.164" y="1.164" stroke="#EEE" stroke-width=".328" rx="7.716"/><rect width="85.373" height="49.582" x="8.314" y="9.045" fill="#F9F9FB" rx="5.09"/><rect width="85.373" height="49.582" x="8.314" y="9.045" stroke="#EEE" stroke-width=".328" rx="5.09"/><path fill="#F9F9FB" d="M8.88 66.672h20v6h-20zm0 11.253h76v6h-76zm0 8h76v6h-76zm0 8h76v6h-76z"/></g><g filter="url(#c)"><rect width="100" height="110" x="79" y="25" fill="#fff" rx="7.881"/><rect width="99.672" height="109.672" x="79.164" y="25.164" stroke="#EEE" stroke-width=".328" rx="7.716"/><rect width="85.373" height="49.582" x="86.314" y="33.045" fill="#F9F9FB" rx="5.09"/><rect width="85.373" height="49.582" x="86.314" y="33.045" stroke="#EEE" stroke-width=".328" rx="5.09"/><path fill="#F9F9FB" d="M86.88 90.672h20v6h-20zm0 11.254h76v6h-76zm0 8h76v6h-76zm0 8h76v6h-76z"/></g><path fill="url(#d)" d="M0 0h258v54H0z" transform="translate(1 94)"/><g filter="url(#e)"><path fill="#FF6A32" d="M107.61 38.754 135 32.667l27.39 6.087a3.333 3.333 0 0 1 2.61 3.254v33.289a20 20 0 0 1-8.906 16.64L135 106l-21.094-14.062A20 20 0 0 1 105 75.297v-33.29a3.333 3.333 0 0 1 2.61-3.253z"/></g><g clip-path="url(#f)" filter="url(#g)"><g filter="url(#h)"><path fill="#fff" d="M141.667 70.333v1.334c0 3.692-.885 7.26-2.553 10.46l-.303.561-2.329-1.298a19.873 19.873 0 0 0 2.509-9.115l.009-.608v-1.334h2.667zm-8-4h2.667v5.334l-.008.505a17.25 17.25 0 0 1-3.588 10.065l-.307.388-2.066-1.687a14.585 14.585 0 0 0 3.294-8.783l.008-.488v-5.334zM135 61a6.667 6.667 0 0 1 6.667 6.667H139a4 4 0 0 0-8 0v4a11.96 11.96 0 0 1-3.028 7.969l-.282.306-1.931-1.839a9.29 9.29 0 0 0 2.566-6.033l.009-.403v-4A6.666 6.666 0 0 1 135 61zm0-5.333c6.628 0 12 5.372 12 12v4a28.1 28.1 0 0 1-.795 6.653l-.185.718-2.573-.7c.521-1.916.816-3.897.876-5.913l.011-.758v-4A9.334 9.334 0 0 0 135 58.333a9.291 9.291 0 0 0-5.589 1.858l-1.9-1.9A11.948 11.948 0 0 1 135 55.666zm-9.376 4.51 1.901 1.9a9.292 9.292 0 0 0-1.853 5.269l-.006.32.006 2.667a9.3 9.3 0 0 1-1.015 4.237l-.208.385-2.316-1.322a6.622 6.622 0 0 0 .861-2.91l.011-.39v-2.666a11.915 11.915 0 0 1 2.619-7.49z"/></g></g><defs><filter id="a" width="101.313" height="111.313" x="156.343" y=".672" color-interpolation-filters="sRGB" filterUnits="userSpaceOnUse"><feFlood flood-opacity="0" result="BackgroundImageFix"/><feColorMatrix in="SourceAlpha" result="hardAlpha" values="0 0 0 0 0 0 0 0 0 0 0 0 0 0 0 0 0 0 127 0"/><feOffset dy=".328"/><feGaussianBlur stdDeviation=".328"/><feComposite in2="hardAlpha" operator="out"/><feColorMatrix values="0 0 0 0 0.894118 0 0 0 0 0.898039 0 0 0 0 0.905882 0 0 0 0.24 0"/><feBlend in2="BackgroundImageFix" result="effect1_dropShadow_631_11867"/><feBlend in="SourceGraphic" in2="effect1_dropShadow_631_11867" result="shape"/></filter><filter id="b" width="101.313" height="111.313" x=".343" y=".672" color-interpolation-filters="sRGB" filterUnits="userSpaceOnUse"><feFlood flood-opacity="0" result="BackgroundImageFix"/><feColorMatrix in="SourceAlpha" result="hardAlpha" values="0 0 0 0 0 0 0 0 0 0 0 0 0 0 0 0 0 0 127 0"/><feOffset dy=".328"/><feGaussianBlur stdDeviation=".328"/><feComposite in2="hardAlpha" operator="out"/><feColorMatrix values="0 0 0 0 0.894118 0 0 0 0 0.898039 0 0 0 0 0.905882 0 0 0 0.24 0"/><feBlend in2="BackgroundImageFix" result="effect1_dropShadow_631_11867"/><feBlend in="SourceGraphic" in2="effect1_dropShadow_631_11867" result="shape"/></filter><filter id="c" width="101.313" height="111.313" x="78.343" y="24.672" color-interpolation-filters="sRGB" filterUnits="userSpaceOnUse"><feFlood flood-opacity="0" result="BackgroundImageFix"/><feColorMatrix in="SourceAlpha" result="hardAlpha" values="0 0 0 0 0 0 0 0 0 0 0 0 0 0 0 0 0 0 127 0"/><feOffset dy=".328"/><feGaussianBlur stdDeviation=".328"/><feComposite in2="hardAlpha" operator="out"/><feColorMatrix values="0 0 0 0 0.894118 0 0 0 0 0.898039 0 0 0 0 0.905882 0 0 0 0.24 0"/><feBlend in2="BackgroundImageFix" result="effect1_dropShadow_631_11867"/><feBlend in="SourceGraphic" in2="effect1_dropShadow_631_11867" result="shape"/></filter><filter id="e" width="124" height="137.333" x="73" y="16.667" color-interpolation-filters="sRGB" filterUnits="userSpaceOnUse"><feFlood flood-opacity="0" result="BackgroundImageFix"/><feColorMatrix in="SourceAlpha" result="hardAlpha" values="0 0 0 0 0 0 0 0 0 0 0 0 0 0 0 0 0 0 127 0"/><feOffset dy="16"/><feGaussianBlur stdDeviation="16"/><feComposite in2="hardAlpha" operator="out"/><feColorMatrix values="0 0 0 0 1 0 0 0 0 0.415686 0 0 0 0 0.196078 0 0 0 0.24 0"/><feBlend in2="BackgroundImageFix" result="effect1_dropShadow_631_11867"/><feBlend in="SourceGraphic" in2="effect1_dropShadow_631_11867" result="shape"/></filter><filter id="g" width="36" height="36" x="117" y="52" color-interpolation-filters="sRGB" filterUnits="userSpaceOnUse"><feFlood flood-opacity="0" result="BackgroundImageFix"/><feColorMatrix in="SourceAlpha" result="hardAlpha" values="0 0 0 0 0 0 0 0 0 0 0 0 0 0 0 0 0 0 127 0"/><feOffset dy="1"/><feGaussianBlur stdDeviation="1"/><feComposite in2="hardAlpha" operator="out"/><feColorMatrix values="0 0 0 0 0.894118 0 0 0 0 0.898039 0 0 0 0 0.905882 0 0 0 0.24 0"/><feBlend in2="BackgroundImageFix" result="effect1_dropShadow_631_11867"/><feBlend in="SourceGraphic" in2="effect1_dropShadow_631_11867" result="shape"/></filter><filter id="h" width="28.868" height="31.022" x="120.133" y="54.667" color-interpolation-filters="sRGB" filterUnits="userSpaceOnUse"><feFlood flood-opacity="0" result="BackgroundImageFix"/><feColorMatrix in="SourceAlpha" result="hardAlpha" values="0 0 0 0 0 0 0 0 0 0 0 0 0 0 0 0 0 0 127 0"/><feOffset dy="1"/><feGaussianBlur stdDeviation="1"/><feComposite in2="hardAlpha" operator="out"/><feColorMatrix values="0 0 0 0 0.894118 0 0 0 0 0.898039 0 0 0 0 0.905882 0 0 0 0.24 0"/><feBlend in2="BackgroundImageFix" result="effect1_dropShadow_631_11867"/><feBlend in="SourceGraphic" in2="effect1_dropShadow_631_11867" result="shape"/></filter><linearGradient id="d" x1="129" x2="129" y1="0" y2="54" gradientUnits="userSpaceOnUse"><stop stop-color="#fff" stop-opacity="0"/><stop offset=".855" stop-color="#fff"/></linearGradient><clipPath id="f"><path fill="#fff" d="M119 53h32v32h-32z"/></clipPath></defs></svg>