<svg xmlns="http://www.w3.org/2000/svg" width="256" height="163" fill="none"><g clip-path="url(#a)"><path fill="#fff" d="M0 0h256v163H0z"/><g filter="url(#b)"><rect width="92.5" height="61.667" x="-75.5" y="16" fill="#fff" rx="6.667"/><rect width="92.083" height="61.25" x="-75.292" y="16.208" stroke="#EEE" stroke-width=".417" rx="6.458"/></g><g filter="url(#c)"><rect width="92.5" height="61.667" x="25" y="16" fill="#fff" rx="6.667"/><rect width="92.083" height="61.25" x="25.208" y="16.208" stroke="#EEE" stroke-width=".417" rx="6.458"/><g clip-path="url(#d)"><path fill="#D80027" d="M42.5 39.167a7.5 7.5 0 1 0 0-15 7.5 7.5 0 0 0 0 15z"/><path fill="#F0F0F0" d="m44.068 30.295.615.848.997-.323-.616.847.615.848-.996-.324-.617.847.001-1.048-.996-.324.996-.323.001-1.048z"/><path fill="#F0F0F0" d="M42.389 33.786a2.12 2.12 0 1 1 1.008-3.984 2.609 2.609 0 1 0 0 3.73 2.11 2.11 0 0 1-1.008.254z"/></g><path fill="#000" d="M35.294 45.281v-.63h3.752v.63h-1.513V49.5h-.729v-4.22h-1.51zm6.333 2.71v-2.127h.71V49.5h-.696v-.63h-.038a1.135 1.135 0 0 1-.402.486 1.171 1.171 0 0 1-.684.191 1.23 1.23 0 0 1-.62-.154 1.081 1.081 0 0 1-.422-.461c-.101-.204-.151-.456-.151-.756v-2.313h.707v2.228c0 .248.069.445.206.592a.7.7 0 0 0 .535.22.87.87 0 0 0 .725-.4.899.899 0 0 0 .13-.511zm1.661 1.509v-3.636h.684v.577h.038a.88.88 0 0 1 .35-.462c.17-.113.36-.17.574-.17a2.976 2.976 0 0 1 .3.017v.677a1.254 1.254 0 0 0-.151-.026 1.439 1.439 0 0 0-.218-.017.924.924 0 0 0-.447.107.792.792 0 0 0-.422.712v2.22h-.708zm3.21-1.234-.005-.864h.123l1.45-1.538h.847l-1.653 1.751h-.111l-.651.651zm-.651 1.234v-4.85h.708v4.85h-.708zm2.296 0-1.302-1.728.488-.495 1.683 2.223h-.869zm2.832.073c-.358 0-.666-.076-.925-.23a1.558 1.558 0 0 1-.597-.65 2.202 2.202 0 0 1-.208-.988c0-.372.07-.7.208-.984.14-.285.336-.506.587-.666a1.62 1.62 0 0 1 .886-.239c.205 0 .404.034.596.102.193.068.366.174.519.32a1.5 1.5 0 0 1 .362.565c.088.23.133.511.133.84v.252h-2.891v-.53h2.197c0-.187-.038-.352-.114-.495a.859.859 0 0 0-.798-.47.923.923 0 0 0-.52.148.984.984 0 0 0-.341.378 1.092 1.092 0 0 0-.119.505v.414c0 .243.043.45.128.62.087.17.208.301.362.39.155.09.336.134.543.134.134 0 .256-.02.366-.057a.761.761 0 0 0 .471-.462l.67.12c-.053.198-.15.37-.288.52a1.4 1.4 0 0 1-.519.343 1.94 1.94 0 0 1-.708.12zm2.69 1.29a1.48 1.48 0 0 1-.484-.078l.17-.58c.13.035.245.05.346.045a.414.414 0 0 0 .268-.113.875.875 0 0 0 .208-.348l.088-.242-1.33-3.683h.757l.92 2.822h.039l.92-2.822h.76l-1.498 4.121c-.07.19-.158.35-.265.48a1.03 1.03 0 0 1-.384.3c-.148.065-.32.099-.516.099z"/><path fill="#888" d="M37.054 62.651v.415h-1.715v-.415h1.715zm-1.202 3.182v-3.62c0-.183.043-.335.129-.456a.796.796 0 0 1 .333-.274 1.223 1.223 0 0 1 .727-.062c.076.02.133.037.17.054l-.14.422a2.508 2.508 0 0 0-.104-.03.629.629 0 0 0-.17-.02c-.162 0-.278.041-.35.123-.07.081-.106.2-.106.358v3.505h-.489zm1.852 0v-3.182h.472v.481h.033a.764.764 0 0 1 .315-.383.926.926 0 0 1 .514-.147 5.35 5.35 0 0 1 .257.008v.497a1.427 1.427 0 0 0-.114-.018 1.13 1.13 0 0 0-.184-.015.866.866 0 0 0-.415.097.715.715 0 0 0-.39.648v2.014h-.488zm3.331.067c-.287 0-.54-.069-.756-.206a1.393 1.393 0 0 1-.506-.573 1.942 1.942 0 0 1-.18-.862c0-.331.06-.62.18-.868.122-.247.29-.44.506-.576.217-.137.469-.205.756-.205.287 0 .539.068.754.205.217.137.385.329.505.576.122.247.183.537.183.868 0 .329-.06.616-.182.862-.12.246-.29.437-.506.574a1.377 1.377 0 0 1-.754.205zm0-.44a.839.839 0 0 0 .539-.167.988.988 0 0 0 .312-.442 1.68 1.68 0 0 0 .102-.592c0-.213-.034-.41-.102-.595a1.001 1.001 0 0 0-.312-.445.832.832 0 0 0-.539-.17.833.833 0 0 0-.538.17.997.997 0 0 0-.313.445 1.706 1.706 0 0 0-.102.595c0 .213.034.41.102.592.067.183.172.33.313.442.14.111.32.167.538.167zm2.153.373v-3.182h.472v.498h.042a.8.8 0 0 1 .32-.396.961.961 0 0 1 .533-.143c.21 0 .385.048.524.143a.937.937 0 0 1 .33.396h.033a.926.926 0 0 1 .367-.392c.163-.098.358-.147.586-.147.284 0 .517.09.698.267.18.177.271.453.271.827v2.13h-.489v-2.13c0-.235-.064-.403-.192-.504a.713.713 0 0 0-.454-.15c-.224 0-.397.067-.52.202a.725.725 0 0 0-.184.51v2.071h-.497v-2.179a.572.572 0 0 0-.176-.437.63.63 0 0 0-.454-.168.67.67 0 0 0-.357.102.765.765 0 0 0-.265.281.832.832 0 0 0-.1.413v1.988h-.488z"/><path fill="#F7F7F8" d="M49.666 62.5A3.333 3.333 0 0 1 53 59.167h18.666A3.333 3.333 0 0 1 75 62.5v3.667a3.333 3.333 0 0 1-3.334 3.333H53a3.333 3.333 0 0 1-3.334-3.333V62.5z"/><path fill="#3F3F50" d="M55.282 66.288v-4.546h.291v4.546h-.291zm.98-3.182a.558.558 0 0 0-.26-.42.995.995 0 0 0-.557-.148 1.06 1.06 0 0 0-.422.078.675.675 0 0 0-.28.215.515.515 0 0 0-.1.31.44.44 0 0 0 .069.25.615.615 0 0 0 .181.173 1.3 1.3 0 0 0 .23.112c.081.028.155.051.223.07l.37.099c.094.025.2.059.315.103.117.043.23.103.336.179a.83.83 0 0 1 .371.72.958.958 0 0 1-.155.532 1.052 1.052 0 0 1-.447.378c-.195.093-.433.14-.712.14-.26 0-.486-.042-.677-.126a1.077 1.077 0 0 1-.447-.352 1.003 1.003 0 0 1-.183-.523h.455a.57.57 0 0 0 .138.34.751.751 0 0 0 .31.2c.125.042.26.063.404.063.168 0 .319-.027.453-.081a.778.778 0 0 0 .317-.231.547.547 0 0 0 .118-.348.426.426 0 0 0-.101-.295.744.744 0 0 0-.267-.184 2.823 2.823 0 0 0-.357-.125l-.447-.128a1.667 1.667 0 0 1-.675-.35.768.768 0 0 1-.248-.594c0-.204.055-.381.165-.533.11-.153.26-.27.447-.355.188-.085.398-.128.63-.128.235 0 .443.042.625.126.183.083.327.197.434.341a.85.85 0 0 1 .17.492h-.426zm2.314-.91v3.637h-.44v-3.175h-.021l-.888.59v-.447l.909-.604h.44zm.946 3.637v-.32l1.2-1.313a8.32 8.32 0 0 0 .348-.402c.092-.114.159-.222.203-.323a.782.782 0 0 0 .067-.32.59.59 0 0 0-.34-.548.806.806 0 0 0-.356-.076.74.74 0 0 0-.365.087.599.599 0 0 0-.24.24.751.751 0 0 0-.084.362h-.419a1.024 1.024 0 0 1 .549-.938c.17-.09.362-.135.573-.135.214 0 .402.045.567.135.164.09.294.211.387.364.093.153.14.323.14.51 0 .133-.024.264-.073.392-.047.127-.13.268-.248.424-.117.155-.28.345-.488.569l-.817.873v.029h1.69v.39h-2.294zm4.22-3.807L62.57 66.38h-.383l1.172-4.354h.383zm2.94 1.307a1.31 1.31 0 0 0-.155-.321.992.992 0 0 0-.52-.4 1.175 1.175 0 0 0-.363-.053c-.215 0-.41.056-.587.167a1.153 1.153 0 0 0-.421.492c-.104.216-.156.482-.156.797 0 .315.052.58.158.797.105.217.248.38.428.492.18.111.382.167.607.167.208 0 .392-.044.55-.133a.945.945 0 0 0 .373-.38c.09-.165.135-.358.135-.58l.135.028h-1.094v-.39h1.385v.39c0 .3-.064.56-.191.78a1.325 1.325 0 0 1-.526.516c-.223.12-.478.181-.767.181a1.58 1.58 0 0 1-.849-.227 1.531 1.531 0 0 1-.568-.647c-.135-.279-.202-.61-.202-.994 0-.288.038-.546.115-.776.078-.23.188-.427.33-.59.142-.162.31-.286.505-.372.194-.087.407-.13.64-.13.192 0 .371.03.537.087a1.44 1.44 0 0 1 .774.618c.087.145.148.305.181.481h-.455zm1.13 2.5v-3.636h1.27c.254 0 .463.044.628.131a.862.862 0 0 1 .367.35.99.99 0 0 1 .12.485.8.8 0 0 1-.083.387.647.647 0 0 1-.216.241.985.985 0 0 1-.29.132v.035a.712.712 0 0 1 .336.117.853.853 0 0 1 .282.306.966.966 0 0 1 .114.486.977.977 0 0 1-.124.492.859.859 0 0 1-.393.346c-.179.086-.411.128-.698.128h-1.314zm.44-.39h.873c.288 0 .492-.056.613-.167a.535.535 0 0 0 .183-.409.65.65 0 0 0-.094-.34.68.68 0 0 0-.268-.253.84.84 0 0 0-.412-.096h-.895v1.265zm0-1.648h.817a.806.806 0 0 0 .358-.078.628.628 0 0 0 .256-.22.583.583 0 0 0 .096-.334.554.554 0 0 0-.167-.407c-.111-.112-.288-.169-.53-.169h-.83v1.208z"/></g><g filter="url(#e)"><rect width="92.5" height="61.667" x="125.5" y="16" fill="#fff" rx="6.667"/><rect width="92.083" height="61.25" x="125.708" y="16.208" stroke="#EEE" stroke-width=".417" rx="6.458"/><g clip-path="url(#f)"><path fill="#F0F0F0" d="M143 39.167a7.5 7.5 0 1 0 0-15 7.5 7.5 0 0 0 0 15z"/><path fill="#000" d="M143 39.167a7.501 7.501 0 0 0 7.033-4.892h-14.067A7.503 7.503 0 0 0 143 39.167z"/><path fill="#D80027" d="M143 24.167a7.503 7.503 0 0 0-7.034 4.89h14.067a7.501 7.501 0 0 0-7.033-4.89z"/></g><path fill="#000" d="M135.659 44.651h.831l1.266 2.204h.052l1.267-2.204h.831l-1.759 2.945V49.5h-.729v-1.904l-1.759-2.945zm5.849 4.922c-.358 0-.667-.076-.926-.23a1.555 1.555 0 0 1-.596-.65 2.2 2.2 0 0 1-.209-.988c0-.372.07-.7.209-.984.14-.285.336-.506.587-.666.252-.16.547-.239.885-.239.205 0 .404.034.597.102a1.439 1.439 0 0 1 .88.885c.089.23.133.511.133.84v.252h-2.891v-.53h2.197c0-.187-.037-.352-.113-.495a.864.864 0 0 0-.798-.47.923.923 0 0 0-.521.148.988.988 0 0 0-.341.378 1.092 1.092 0 0 0-.118.505v.414c0 .243.042.45.128.62.086.17.207.301.362.39.155.09.335.134.542.134.134 0 .257-.02.367-.057a.76.76 0 0 0 .471-.462l.67.12c-.054.198-.15.37-.289.52-.137.146-.31.26-.518.343-.207.08-.443.12-.708.12zm2.345-.073v-3.636h.68v.591h.045c.076-.2.2-.356.372-.468.172-.114.378-.17.617-.17.244 0 .447.056.611.17.166.113.288.27.367.468h.038a1.03 1.03 0 0 1 .414-.464c.19-.116.415-.175.677-.175.33 0 .599.103.808.31.21.207.315.519.315.935V49.5h-.708v-2.372c0-.246-.067-.425-.201-.535a.735.735 0 0 0-.481-.166c-.23 0-.41.071-.537.213a.774.774 0 0 0-.192.542V49.5h-.706v-2.417a.634.634 0 0 0-.184-.476.66.66 0 0 0-.481-.18.69.69 0 0 0-.372.106.786.786 0 0 0-.272.292.89.89 0 0 0-.102.433V49.5h-.708zm7.46.073c-.359 0-.667-.076-.926-.23a1.563 1.563 0 0 1-.597-.65 2.2 2.2 0 0 1-.208-.988c0-.372.069-.7.208-.984.141-.285.337-.506.587-.666a1.62 1.62 0 0 1 .886-.239c.205 0 .404.034.596.102a1.434 1.434 0 0 1 .881.885c.089.23.133.511.133.84v.252h-2.891v-.53h2.197c0-.187-.038-.352-.114-.495a.854.854 0 0 0-.319-.344.893.893 0 0 0-.478-.125.923.923 0 0 0-.521.147.98.98 0 0 0-.341.378 1.092 1.092 0 0 0-.118.505v.414c0 .243.042.45.127.62a.92.92 0 0 0 .363.39c.154.09.335.134.542.134.134 0 .256-.02.367-.057a.76.76 0 0 0 .471-.462l.67.12c-.054.198-.15.37-.289.52-.137.146-.31.26-.519.343-.206.08-.442.12-.707.12zm3.053-2.232V49.5h-.708v-3.636h.68v.591h.045a1.03 1.03 0 0 1 .393-.464c.179-.116.406-.175.679-.175.248 0 .465.052.651.156.186.103.331.256.433.46.103.203.154.455.154.755V49.5h-.708v-2.228c0-.263-.068-.47-.206-.618-.137-.15-.326-.225-.565-.225a.881.881 0 0 0-.438.107.761.761 0 0 0-.301.312c-.073.136-.109.3-.109.493z"/><path fill="#888" d="M137.554 62.651v.415h-1.715v-.415h1.715zm-1.202 3.182v-3.62a.77.77 0 0 1 .129-.456.79.79 0 0 1 .333-.274 1.222 1.222 0 0 1 .897-.008l-.141.422a2.575 2.575 0 0 0-.103-.03.634.634 0 0 0-.17-.02c-.162 0-.278.041-.35.123-.071.081-.106.2-.106.358v3.505h-.489zm1.852 0v-3.182h.472v.481h.033a.764.764 0 0 1 .315-.383.927.927 0 0 1 .514-.147 5.372 5.372 0 0 1 .257.008v.497a1.496 1.496 0 0 0-.114-.018 1.136 1.136 0 0 0-.185-.015.868.868 0 0 0-.414.097.715.715 0 0 0-.389.648v2.014h-.489zm3.331.067c-.287 0-.539-.069-.756-.206a1.392 1.392 0 0 1-.505-.573 1.93 1.93 0 0 1-.181-.862c0-.331.06-.62.181-.868.121-.247.29-.44.505-.576.217-.137.469-.205.756-.205.287 0 .539.068.754.205.217.137.385.329.506.576.121.247.182.537.182.868 0 .329-.061.616-.182.862a1.38 1.38 0 0 1-.506.574 1.376 1.376 0 0 1-.754.205zm0-.44a.84.84 0 0 0 .539-.167.982.982 0 0 0 .312-.442 1.68 1.68 0 0 0 .102-.592c0-.213-.034-.41-.102-.595a.995.995 0 0 0-.312-.445.834.834 0 0 0-.539-.17.834.834 0 0 0-.539.17c-.14.113-.245.262-.312.445a1.699 1.699 0 0 0-.102.595c0 .213.034.41.102.592a.99.99 0 0 0 .312.442.84.84 0 0 0 .539.167zm2.153.373v-3.182h.472v.498h.042a.797.797 0 0 1 .321-.396.96.96 0 0 1 .532-.143c.21 0 .385.048.524.143a.936.936 0 0 1 .33.396h.033a.924.924 0 0 1 .367-.392c.162-.098.358-.147.586-.147.284 0 .517.09.698.267.181.177.271.453.271.827v2.13h-.489v-2.13c0-.235-.064-.403-.192-.504a.715.715 0 0 0-.454-.15c-.224 0-.397.067-.52.202a.724.724 0 0 0-.184.51v2.071h-.497v-2.179a.57.57 0 0 0-.177-.437.628.628 0 0 0-.453-.168.668.668 0 0 0-.356.102.763.763 0 0 0-.266.281.835.835 0 0 0-.099.413v1.988h-.489z"/><path fill="#F7F7F8" d="M150.167 62.5a3.333 3.333 0 0 1 3.333-3.333h16.666A3.334 3.334 0 0 1 173.5 62.5v3.667a3.334 3.334 0 0 1-3.333 3.333H153.5a3.333 3.333 0 0 1-3.333-3.333V62.5z"/><path fill="#3F3F50" d="M155.782 66.288v-4.546h.291v4.546h-.291zm.98-3.182a.558.558 0 0 0-.259-.42.998.998 0 0 0-.558-.148c-.161 0-.302.026-.422.078a.677.677 0 0 0-.281.215.516.516 0 0 0-.099.31.44.44 0 0 0 .069.25.615.615 0 0 0 .181.173c.073.045.15.082.231.112.08.028.154.051.222.07l.369.099c.095.025.2.059.316.103.117.043.229.103.336.179a.828.828 0 0 1 .371.72.958.958 0 0 1-.155.532 1.048 1.048 0 0 1-.447.378c-.195.093-.433.14-.712.14-.26 0-.486-.042-.677-.126a1.079 1.079 0 0 1-.447-.352.999.999 0 0 1-.183-.523h.455c.011.137.058.25.138.34a.755.755 0 0 0 .309.2c.126.042.261.063.405.063.168 0 .319-.027.453-.081a.79.79 0 0 0 .318-.231.547.547 0 0 0 .117-.348.424.424 0 0 0-.102-.295.738.738 0 0 0-.266-.184 2.808 2.808 0 0 0-.357-.125l-.447-.128a1.67 1.67 0 0 1-.675-.35.767.767 0 0 1-.248-.594c0-.204.055-.381.165-.533.111-.153.26-.27.447-.355a1.51 1.51 0 0 1 .63-.128c.235 0 .443.042.625.126.183.083.327.197.434.341a.855.855 0 0 1 .17.492h-.426zm2.201 2.777a1.52 1.52 0 0 1-.647-.13 1.07 1.07 0 0 1-.435-.36.908.908 0 0 1-.154-.526.977.977 0 0 1 .09-.426.93.93 0 0 1 .253-.328.766.766 0 0 1 .36-.169v-.021a.7.7 0 0 1-.415-.293.89.89 0 0 1-.153-.517.877.877 0 0 1 .14-.495.99.99 0 0 1 .391-.345c.167-.084.357-.126.57-.126.21 0 .399.042.564.126a.99.99 0 0 1 .391.345c.096.145.144.31.146.495a.908.908 0 0 1-.158.517.701.701 0 0 1-.411.293v.021c.132.024.25.08.355.169a.992.992 0 0 1 .348.754.92.92 0 0 1-.159.526 1.057 1.057 0 0 1-.435.36 1.5 1.5 0 0 1-.641.13zm0-.39c.164 0 .306-.027.426-.08a.636.636 0 0 0 .277-.226.607.607 0 0 0 .099-.341.651.651 0 0 0-.106-.364.722.722 0 0 0-.286-.248.898.898 0 0 0-.41-.091.926.926 0 0 0-.416.09.722.722 0 0 0-.286.249.648.648 0 0 0-.101.364c-.001.13.03.244.094.34a.631.631 0 0 0 .279.226c.121.054.264.08.43.08zm0-1.726c.13 0 .245-.027.346-.079a.594.594 0 0 0 .24-.218.62.62 0 0 0 .088-.328.603.603 0 0 0-.087-.322.558.558 0 0 0-.236-.213.767.767 0 0 0-.351-.076.79.79 0 0 0-.357.076.546.546 0 0 0-.236.213.592.592 0 0 0-.082.322.617.617 0 0 0 .083.328.594.594 0 0 0 .24.218.764.764 0 0 0 .352.078zm3.109-1.74L160.9 66.38h-.384l1.172-4.354h.384zm2.939 1.306a1.279 1.279 0 0 0-.155-.321.97.97 0 0 0-.52-.4 1.175 1.175 0 0 0-.362-.053c-.215 0-.411.056-.588.167a1.163 1.163 0 0 0-.421.492c-.104.216-.156.482-.156.797 0 .315.053.58.158.797.106.217.248.38.428.492.18.111.382.167.607.167.209 0 .392-.044.551-.133a.946.946 0 0 0 .373-.38c.09-.165.135-.358.135-.58l.135.028h-1.094v-.39h1.385v.39c0 .3-.064.56-.192.78a1.327 1.327 0 0 1-.526.516c-.222.12-.478.181-.767.181-.322 0-.604-.076-.848-.227a1.537 1.537 0 0 1-.569-.647 2.279 2.279 0 0 1-.202-.994c0-.288.039-.546.115-.776.079-.23.189-.427.331-.59.142-.162.31-.286.504-.372a1.55 1.55 0 0 1 .641-.13c.192 0 .37.03.536.087a1.438 1.438 0 0 1 .774.618c.088.145.148.305.181.481h-.454zm1.13 2.5v-3.636h1.271c.254 0 .462.044.627.131a.864.864 0 0 1 .368.35.99.99 0 0 1 .12.485.809.809 0 0 1-.083.387.654.654 0 0 1-.217.241.987.987 0 0 1-.289.132v.035a.71.71 0 0 1 .335.117.85.85 0 0 1 .283.306.975.975 0 0 1 .113.486.975.975 0 0 1-.124.492.862.862 0 0 1-.392.346c-.179.086-.412.128-.698.128h-1.314zm.44-.39h.874c.287 0 .492-.056.612-.167a.535.535 0 0 0 .183-.409.646.646 0 0 0-.094-.34.682.682 0 0 0-.268-.253.84.84 0 0 0-.412-.096h-.895v1.265zm0-1.648h.817a.807.807 0 0 0 .359-.078.625.625 0 0 0 .255-.22.582.582 0 0 0 .096-.334.55.55 0 0 0-.167-.407c-.111-.112-.287-.169-.529-.169h-.831v1.208z"/></g><g filter="url(#g)"><rect width="92.5" height="61.667" x="226" y="16" fill="#fff" rx="6.667"/><rect width="92.083" height="61.25" x="226.208" y="16.208" stroke="#EEE" stroke-width=".417" rx="6.458"/><g clip-path="url(#h)"><path fill="#F0F0F0" d="M243.5 39.167a7.5 7.5 0 1 0 0-15 7.5 7.5 0 0 0 0 15z"/><path fill="#0052B4" d="M237.55 27.1a7.48 7.48 0 0 0-1.292 2.61h3.902l-2.61-2.61zm13.191 2.61a7.446 7.446 0 0 0-1.292-2.61l-2.609 2.61h3.901zm-14.483 3.913a7.48 7.48 0 0 0 1.292 2.61l2.61-2.61h-3.902zm11.808-7.906a7.471 7.471 0 0 0-2.609-1.292v3.902l2.609-2.61zm-9.132 11.899a7.477 7.477 0 0 0 2.61 1.292v-3.901l-2.61 2.61zm2.61-13.191a7.477 7.477 0 0 0-2.61 1.292l2.61 2.61v-3.902zm3.913 14.483a7.473 7.473 0 0 0 2.609-1.292l-2.609-2.61v3.902zm1.383-5.285 2.609 2.61a7.446 7.446 0 0 0 1.292-2.61h-3.901z"/><path fill="#D80027" d="M250.937 30.688h-6.459V24.23a7.56 7.56 0 0 0-1.956 0v6.458h-6.459a7.702 7.702 0 0 0 0 1.957h6.459v6.458a7.56 7.56 0 0 0 1.956 0v-6.458h6.459a7.7 7.7 0 0 0 0-1.957z"/><path fill="#D80027" d="m245.457 33.623 3.346 3.347c.154-.154.301-.315.441-.481l-2.865-2.866h-.922zm-3.913 0-3.347 3.347c.154.154.315.3.481.44l2.866-2.865v-.922zm-.001-3.913-3.346-3.347a7.442 7.442 0 0 0-.441.482l2.865 2.865h.922zm3.914 0 3.346-3.347a7.488 7.488 0 0 0-.481-.44l-2.865 2.865v.922z"/></g><path fill="#000" d="M239.651 44.651h.733v3.19c0 .339-.079.64-.239.901-.159.26-.383.466-.672.616a2.194 2.194 0 0 1-1.016.222 2.19 2.19 0 0 1-1.013-.222 1.666 1.666 0 0 1-.672-.616 1.695 1.695 0 0 1-.239-.902v-3.189h.731v3.13c0 .22.048.414.145.585.097.17.236.304.414.402.178.097.39.145.634.145.247 0 .459-.048.637-.145.18-.098.317-.232.412-.402a1.17 1.17 0 0 0 .145-.585v-3.13zm2.448 2.69V49.5h-.708v-3.636h.68v.591h.045a1.03 1.03 0 0 1 .393-.464c.18-.116.406-.175.679-.175.248 0 .465.052.651.156.186.103.331.256.433.46.103.203.154.455.154.755V49.5h-.708v-2.228c0-.263-.068-.47-.206-.618-.137-.15-.325-.225-.565-.225a.881.881 0 0 0-.438.107.761.761 0 0 0-.301.312c-.073.136-.109.3-.109.493zm3.277 2.159v-3.636h.707V49.5h-.707zm.357-4.198a.449.449 0 0 1-.317-.123.4.4 0 0 1-.13-.298c0-.117.043-.216.13-.298a.444.444 0 0 1 .317-.126c.123 0 .228.042.315.126a.399.399 0 0 1 0 .597.442.442 0 0 1-.315.122zm3 .562v.568h-1.986v-.569h1.986zm-1.453-.872h.707v3.44c0 .137.021.24.062.31a.32.32 0 0 0 .159.14.633.633 0 0 0 .215.035.829.829 0 0 0 .149-.011l.1-.02.127.585a1.376 1.376 0 0 1-.459.076c-.186.003-.36-.03-.521-.1a.889.889 0 0 1-.39-.321.942.942 0 0 1-.149-.547v-3.587zm3.764 4.581c-.358 0-.666-.076-.925-.23a1.557 1.557 0 0 1-.597-.65 2.2 2.2 0 0 1-.208-.988c0-.372.069-.7.208-.984a1.62 1.62 0 0 1 .587-.666 1.62 1.62 0 0 1 .886-.239c.205 0 .404.034.596.102a1.434 1.434 0 0 1 .881.885c.088.23.133.511.133.84v.252h-2.891v-.53h2.197c0-.187-.038-.352-.114-.495a.861.861 0 0 0-.798-.47.922.922 0 0 0-.52.148.98.98 0 0 0-.341.378 1.093 1.093 0 0 0-.119.505v.414c0 .243.043.45.128.62.087.17.208.301.362.39.155.09.336.134.542.134.135 0 .257-.02.367-.057a.772.772 0 0 0 .472-.462l.67.12c-.054.198-.15.37-.289.52-.138.146-.31.26-.519.343a1.95 1.95 0 0 1-.708.12zm3.707-.002c-.293 0-.555-.075-.786-.225a1.533 1.533 0 0 1-.54-.646c-.129-.281-.194-.618-.194-1.011 0-.393.066-.73.197-1.009a1.5 1.5 0 0 1 .544-.641c.231-.149.492-.223.784-.223.226 0 .407.038.544.114a.963.963 0 0 1 .322.26c.078.1.138.187.18.263h.043v-1.802h.708V49.5h-.691v-.566h-.06a1.852 1.852 0 0 1-.184.265c-.079.1-.188.187-.327.26a1.144 1.144 0 0 1-.54.112zm.156-.604a.828.828 0 0 0 .517-.16.999.999 0 0 0 .322-.453 1.87 1.87 0 0 0 .111-.672 1.86 1.86 0 0 0-.109-.663.974.974 0 0 0-.32-.443.84.84 0 0 0-.521-.159.84.84 0 0 0-.532.166c-.142.11-.25.261-.322.452a1.845 1.845 0 0 0-.107.647c0 .243.037.461.109.655.073.195.18.348.322.462a.837.837 0 0 0 .53.168zm4.477.533v-4.85h.732v2.316h.059l2.034-2.316h.92l-1.955 2.183 1.963 2.666h-.881l-1.567-2.166-.573.658V49.5h-.732zm4.598 0v-3.636h.708V49.5h-.708zm.358-4.198a.449.449 0 0 1-.317-.123.4.4 0 0 1-.131-.298c0-.117.044-.216.131-.298a.444.444 0 0 1 .317-.126c.123 0 .228.042.315.126a.393.393 0 0 1 .132.298.398.398 0 0 1-.132.298.442.442 0 0 1-.315.123zm2.01 2.039V49.5h-.707v-3.636h.679v.591h.045c.084-.192.215-.347.393-.464.18-.116.406-.175.679-.175.248 0 .465.052.651.156.187.103.331.256.434.46.102.203.154.455.154.755V49.5h-.708v-2.228c0-.263-.069-.47-.206-.618-.138-.15-.326-.225-.566-.225a.887.887 0 0 0-.438.107.767.767 0 0 0-.301.312 1.04 1.04 0 0 0-.109.493zm4.802 3.598c-.289 0-.538-.038-.746-.113a1.443 1.443 0 0 1-.507-.301 1.25 1.25 0 0 1-.293-.41l.608-.25c.043.069.099.142.17.22a.893.893 0 0 0 .294.2c.125.056.285.084.481.084.268 0 .49-.066.665-.197.175-.13.263-.336.263-.62v-.715h-.045a1.607 1.607 0 0 1-.185.258 1 1 0 0 1-.327.246c-.139.07-.319.104-.542.104-.287 0-.546-.067-.776-.2a1.427 1.427 0 0 1-.545-.6c-.132-.265-.199-.59-.199-.978 0-.386.066-.718.197-.994.132-.276.314-.488.544-.634.231-.149.492-.223.784-.223.226 0 .408.038.547.114a.992.992 0 0 1 .324.26c.079.1.14.187.182.263h.052v-.59h.694v3.717c0 .313-.072.57-.218.77-.145.2-.341.349-.589.445a2.273 2.273 0 0 1-.833.144zm-.008-2.08a.905.905 0 0 0 .517-.143.88.88 0 0 0 .321-.412c.075-.18.112-.395.112-.646 0-.245-.037-.46-.109-.646a.96.96 0 0 0-.32-.436.84.84 0 0 0-.521-.159.84.84 0 0 0-.532.166.995.995 0 0 0-.322.445 1.77 1.77 0 0 0-.107.63c0 .238.037.447.109.627.073.18.18.32.322.422a.9.9 0 0 0 .53.151zm3.959.712c-.294 0-.556-.075-.786-.225a1.533 1.533 0 0 1-.54-.646c-.129-.281-.194-.618-.194-1.011 0-.393.065-.73.196-1.009a1.51 1.51 0 0 1 .545-.641c.23-.149.491-.223.783-.223.226 0 .408.038.545.114a.973.973 0 0 1 .322.26c.077.1.137.187.18.263h.042v-1.802h.708V49.5h-.691v-.566h-.059a1.869 1.869 0 0 1-.185.265 1.01 1.01 0 0 1-.326.26 1.144 1.144 0 0 1-.54.112zm.156-.604a.823.823 0 0 0 .516-.16.999.999 0 0 0 .322-.453 1.87 1.87 0 0 0 .111-.672c0-.253-.036-.474-.109-.663a.972.972 0 0 0-.319-.443.843.843 0 0 0-.521-.159.842.842 0 0 0-.533.166c-.142.11-.249.261-.322.452a1.845 1.845 0 0 0-.106.647c0 .243.036.461.109.655.072.195.18.348.322.462.143.112.32.168.53.168zm4.187.606a1.67 1.67 0 0 1-.892-.234 1.578 1.578 0 0 1-.592-.656c-.14-.28-.211-.61-.211-.985 0-.377.071-.707.211-.99.14-.282.338-.501.592-.657a1.66 1.66 0 0 1 .892-.235c.341 0 .639.078.893.234.254.157.451.376.592.659.14.282.21.612.21.99 0 .375-.07.703-.21.984-.141.281-.338.5-.592.656a1.671 1.671 0 0 1-.893.234zm.003-.594a.848.848 0 0 0 .549-.175c.145-.117.253-.272.322-.467.071-.194.106-.408.106-.641 0-.232-.035-.445-.106-.64a1.04 1.04 0 0 0-.322-.47.84.84 0 0 0-.549-.178.854.854 0 0 0-.554.178 1.06 1.06 0 0 0-.325.47 1.896 1.896 0 0 0-.104.64c0 .233.035.447.104.642.071.194.18.35.325.466a.862.862 0 0 0 .554.175zm2.483.52v-3.636h.679v.592h.045c.076-.2.2-.356.372-.468.172-.114.378-.17.618-.17.243 0 .446.056.61.17.166.113.288.27.367.468h.038c.087-.194.225-.348.415-.464a1.27 1.27 0 0 1 .677-.175c.329 0 .599.103.807.31.21.207.315.519.315.935V49.5h-.708v-2.372c0-.246-.067-.425-.201-.535a.733.733 0 0 0-.481-.166c-.23 0-.409.071-.537.213a.774.774 0 0 0-.192.542V49.5h-.706v-2.417a.634.634 0 0 0-.184-.476.66.66 0 0 0-.481-.18.69.69 0 0 0-.372.106.786.786 0 0 0-.272.292.89.89 0 0 0-.102.433V49.5h-.707z"/><path fill="#888" d="M238.054 62.651v.415h-1.715v-.415h1.715zm-1.202 3.182v-3.62a.77.77 0 0 1 .129-.456.79.79 0 0 1 .333-.274 1.222 1.222 0 0 1 .897-.008l-.141.422a2.575 2.575 0 0 0-.103-.03.634.634 0 0 0-.17-.02c-.162 0-.278.041-.35.123-.071.081-.106.2-.106.358v3.505h-.489zm1.852 0v-3.182h.472v.481h.033a.764.764 0 0 1 .315-.383.927.927 0 0 1 .514-.147 5.372 5.372 0 0 1 .257.008v.497a1.496 1.496 0 0 0-.114-.018 1.136 1.136 0 0 0-.185-.015.868.868 0 0 0-.414.097.715.715 0 0 0-.389.648v2.014h-.489zm3.331.067c-.287 0-.539-.069-.756-.206a1.392 1.392 0 0 1-.505-.573 1.93 1.93 0 0 1-.181-.862c0-.331.06-.62.181-.868.121-.247.29-.44.505-.576.217-.137.469-.205.756-.205.287 0 .539.068.754.205.217.137.385.329.506.576.121.247.182.537.182.868 0 .329-.061.616-.182.862a1.38 1.38 0 0 1-.506.574 1.376 1.376 0 0 1-.754.205zm0-.44a.84.84 0 0 0 .539-.167.982.982 0 0 0 .312-.442 1.68 1.68 0 0 0 .102-.592c0-.213-.034-.41-.102-.595a.995.995 0 0 0-.312-.445.834.834 0 0 0-.539-.17.834.834 0 0 0-.539.17c-.14.113-.245.262-.312.445a1.699 1.699 0 0 0-.102.595c0 .213.034.41.102.592a.99.99 0 0 0 .312.442.84.84 0 0 0 .539.167zm2.153.373v-3.182h.472v.498h.042a.797.797 0 0 1 .321-.396.96.96 0 0 1 .532-.143c.21 0 .385.048.524.143a.936.936 0 0 1 .33.396h.033a.924.924 0 0 1 .367-.392c.162-.098.358-.147.586-.147.284 0 .517.09.698.267.181.177.271.453.271.827v2.13h-.489v-2.13c0-.235-.064-.403-.192-.504a.715.715 0 0 0-.454-.15c-.224 0-.397.067-.52.202a.724.724 0 0 0-.184.51v2.071h-.497v-2.179a.57.57 0 0 0-.177-.437.628.628 0 0 0-.453-.168.668.668 0 0 0-.356.102.763.763 0 0 0-.266.281.835.835 0 0 0-.099.413v1.988h-.489z"/><path fill="#F7F7F8" d="M250.667 62.5A3.333 3.333 0 0 1 254 59.167h16.666A3.334 3.334 0 0 1 274 62.5v3.667a3.334 3.334 0 0 1-3.333 3.333H254a3.333 3.333 0 0 1-3.333-3.333V62.5z"/><path fill="#3F3F50" d="M256.282 66.288v-4.546h.291v4.546h-.291zm.98-3.182a.558.558 0 0 0-.259-.42.998.998 0 0 0-.558-.148c-.161 0-.302.026-.422.078a.677.677 0 0 0-.281.215.516.516 0 0 0-.099.31.44.44 0 0 0 .069.25.615.615 0 0 0 .181.173c.073.045.15.082.231.112.08.028.154.051.222.07l.369.099c.095.025.2.059.316.103.117.043.229.103.336.179a.828.828 0 0 1 .371.72.958.958 0 0 1-.155.532 1.048 1.048 0 0 1-.447.378c-.195.093-.433.14-.712.14-.26 0-.486-.042-.677-.126a1.079 1.079 0 0 1-.447-.352.999.999 0 0 1-.183-.523h.455c.011.137.058.25.138.34a.755.755 0 0 0 .309.2c.126.042.261.063.405.063.168 0 .319-.027.453-.081a.79.79 0 0 0 .318-.231.547.547 0 0 0 .117-.348.424.424 0 0 0-.102-.295.738.738 0 0 0-.266-.184 2.808 2.808 0 0 0-.357-.125l-.447-.128a1.67 1.67 0 0 1-.675-.35.767.767 0 0 1-.248-.594c0-.204.055-.381.165-.533.111-.153.26-.27.447-.355a1.51 1.51 0 0 1 .63-.128c.235 0 .443.042.625.126.183.083.327.197.434.341a.855.855 0 0 1 .17.492h-.426zm2.243 2.777a1.358 1.358 0 0 1-.447-.085 1.08 1.08 0 0 1-.409-.276 1.42 1.42 0 0 1-.296-.527 2.661 2.661 0 0 1-.112-.838c0-.322.03-.607.091-.856.06-.25.148-.46.262-.63.115-.172.254-.302.416-.39.163-.09.347-.134.552-.134.204 0 .385.041.543.123.16.08.29.193.391.337.101.145.166.31.195.499h-.433a.8.8 0 0 0-.234-.407.652.652 0 0 0-.462-.161.759.759 0 0 0-.666.367c-.161.245-.242.59-.243 1.032h.028a1.069 1.069 0 0 1 .895-.483c.209 0 .399.052.572.156.173.103.311.246.416.428.104.181.156.389.156.623 0 .225-.051.431-.151.618a1.15 1.15 0 0 1-.425.444 1.193 1.193 0 0 1-.639.16zm0-.39a.741.741 0 0 0 .402-.112.845.845 0 0 0 .387-.72.834.834 0 0 0-.377-.706.727.727 0 0 0-.398-.11.738.738 0 0 0-.314.067.805.805 0 0 0-.255.181.87.87 0 0 0-.171.265.847.847 0 0 0 .039.716.831.831 0 0 0 .281.303.732.732 0 0 0 .406.115zm3.106-3.467-1.172 4.354h-.384l1.172-4.354h.384zm2.939 1.307a1.279 1.279 0 0 0-.155-.321.97.97 0 0 0-.52-.4 1.175 1.175 0 0 0-.362-.053c-.215 0-.411.056-.588.167a1.154 1.154 0 0 0-.42.492c-.105.216-.157.482-.157.797 0 .315.053.58.158.797.106.217.248.38.428.492.18.111.383.167.607.167.209 0 .392-.044.551-.133a.946.946 0 0 0 .373-.38c.09-.165.135-.358.135-.58l.135.028h-1.094v-.39h1.385v.39c0 .3-.064.56-.192.78a1.327 1.327 0 0 1-.526.516c-.222.12-.478.181-.767.181-.322 0-.604-.076-.848-.227a1.528 1.528 0 0 1-.568-.647 2.264 2.264 0 0 1-.203-.994c0-.288.039-.546.116-.776.078-.23.188-.427.33-.59.142-.162.31-.286.504-.372a1.55 1.55 0 0 1 .641-.13c.192 0 .371.03.536.087a1.438 1.438 0 0 1 .774.618c.088.145.148.305.182.481h-.455zm1.13 2.5v-3.636h1.271c.254 0 .463.044.627.131a.864.864 0 0 1 .368.35.99.99 0 0 1 .12.485.797.797 0 0 1-.083.387.654.654 0 0 1-.217.241.976.976 0 0 1-.289.132v.035a.71.71 0 0 1 .335.117.85.85 0 0 1 .283.306.964.964 0 0 1 .113.486.975.975 0 0 1-.124.492.862.862 0 0 1-.392.346c-.179.086-.412.128-.698.128h-1.314zm.44-.39h.874c.288 0 .492-.056.612-.167a.535.535 0 0 0 .183-.409.676.676 0 0 0-.362-.593.84.84 0 0 0-.412-.096h-.895v1.265zm0-1.648h.817a.807.807 0 0 0 .359-.078.625.625 0 0 0 .255-.22.582.582 0 0 0 .096-.334.55.55 0 0 0-.167-.407c-.111-.112-.287-.169-.529-.169h-.831v1.208z"/></g><g filter="url(#i)"><rect width="92.5" height="61.667" x="1" y="85.667" fill="#fff" rx="6.667"/><rect width="92.083" height="61.25" x="1.208" y="85.875" stroke="#EEE" stroke-width=".417" rx="6.458"/><g clip-path="url(#j)"><path fill="#F0F0F0" d="M18.5 108.833a7.5 7.5 0 1 0 0-15 7.5 7.5 0 1 0 0 15z"/><path fill="#D80027" d="M21.109 101.333c0 .652-1.168 2.283-2.609 2.283-1.44 0-2.608-1.631-2.608-2.283a2.609 2.609 0 0 1 5.217 0z"/><path fill="#0052B4" d="M21.109 101.333a2.609 2.609 0 1 1-5.217 0"/><path fill="#000" d="m21.265 103.639.692-.691.46.461-.69.691-.462-.461zm-1.153 1.153.691-.692.462.461-.692.692-.461-.461zm2.536.23.692-.691.46.461-.691.692-.461-.462zm-1.153 1.153.692-.691.46.461-.69.692-.462-.462zm.461-1.844.692-.692.461.461-.691.692-.462-.461zm-1.152 1.153.691-.692.461.461-.691.692-.461-.461zm1.847-6.455-1.844-1.845.461-.46 1.845 1.844-.462.46zm-1.844-.461-.692-.692.461-.46.692.69-.461.462zm1.153 1.152-.692-.69.46-.462.692.692-.46.46zm.23-2.536-.692-.691.461-.461.692.691-.461.461zm1.153 1.153-.691-.691.46-.461.692.691-.46.461zm-9.684 5.993 1.844 1.844-.461.461-1.844-1.844.46-.461zm1.844.46.692.692-.462.461-.691-.692.46-.461zm-1.153-1.152.692.691-.461.462-.692-.692.461-.461zm.692-.692 1.844 1.844-.46.461-1.845-1.844.461-.461zm.461-6.455-1.844 1.844-.462-.46 1.845-1.845.46.461zm.691.692-1.844 1.844-.461-.461 1.844-1.844.461.46zm.693.692-1.845 1.844-.46-.46 1.844-1.845.46.46z"/></g><path fill="#000" d="M14.177 115.592a.692.692 0 0 0-.312-.521c-.184-.125-.414-.187-.692-.187-.199 0-.37.032-.516.095a.787.787 0 0 0-.338.255.605.605 0 0 0-.119.367.55.55 0 0 0 .08.299.73.73 0 0 0 .216.21c.09.056.186.102.289.14.103.036.201.066.296.09l.474.123c.154.038.313.089.475.154.163.065.314.15.453.256a1.146 1.146 0 0 1 .466.954c0 .274-.071.518-.213.731a1.42 1.42 0 0 1-.613.504c-.267.124-.59.185-.969.185-.363 0-.677-.057-.942-.173a1.445 1.445 0 0 1-.623-.49 1.419 1.419 0 0 1-.248-.757h.734a.75.75 0 0 0 .17.438c.101.115.23.201.386.258.158.055.33.083.519.083.206 0 .39-.033.551-.098a.919.919 0 0 0 .384-.274.653.653 0 0 0 .14-.414.507.507 0 0 0-.124-.353.904.904 0 0 0-.329-.227 3.244 3.244 0 0 0-.466-.159l-.573-.156c-.388-.106-.696-.262-.923-.467-.226-.205-.339-.476-.339-.814 0-.279.076-.523.227-.732.152-.208.357-.37.616-.485.259-.117.55-.175.876-.175.328 0 .618.057.869.173.252.115.451.274.596.476.146.2.221.43.228.691h-.706zm3.12 3.648c-.34 0-.637-.078-.892-.234a1.585 1.585 0 0 1-.591-.656 2.175 2.175 0 0 1-.211-.985c0-.377.07-.707.21-.99a1.59 1.59 0 0 1 .592-.658c.255-.156.552-.234.893-.234.34 0 .638.078.893.234.254.157.45.376.591.658.14.283.211.613.211.99 0 .376-.07.704-.21.985a1.585 1.585 0 0 1-.593.656 1.672 1.672 0 0 1-.892.234zm.003-.594a.853.853 0 0 0 .55-.175 1.03 1.03 0 0 0 .322-.467c.07-.194.106-.408.106-.641 0-.232-.035-.445-.106-.64a1.048 1.048 0 0 0-.322-.471.843.843 0 0 0-.55-.177.856.856 0 0 0-.554.177 1.065 1.065 0 0 0-.324.471 1.88 1.88 0 0 0-.104.64c0 .233.034.447.104.641.071.194.18.35.324.467a.867.867 0 0 0 .554.175zm4.787-.987v-2.129h.71v3.637H22.1v-.63h-.038a1.133 1.133 0 0 1-.402.485 1.17 1.17 0 0 1-.685.192c-.233 0-.44-.051-.62-.154a1.078 1.078 0 0 1-.421-.462c-.101-.203-.152-.455-.152-.755v-2.313h.708v2.228c0 .248.069.445.206.592.137.147.316.22.535.22a.871.871 0 0 0 .724-.4.899.899 0 0 0 .13-.511zm3.358-2.129v.568H23.46v-.568h1.986zm-1.453-.871h.708v3.44c0 .137.02.241.061.31a.325.325 0 0 0 .159.14.653.653 0 0 0 .215.035.816.816 0 0 0 .15-.012c.042-.007.075-.014.099-.019l.128.585a1.447 1.447 0 0 1-.46.076 1.25 1.25 0 0 1-.52-.099.898.898 0 0 1-.391-.322.949.949 0 0 1-.15-.547v-3.587zm3.022 2.349v2.159h-.707v-4.849h.698v1.804h.045a1.04 1.04 0 0 1 .39-.466c.176-.115.405-.173.687-.173.25 0 .467.051.654.154.187.102.333.255.435.459.104.202.156.455.156.758v2.313h-.707v-2.228c0-.267-.07-.474-.206-.62-.138-.149-.329-.223-.573-.223a.938.938 0 0 0-.45.107.769.769 0 0 0-.31.312c-.075.136-.112.3-.112.493zm5.124 2.159v-4.849h.732v2.315h.059l2.033-2.315h.921l-1.955 2.183 1.963 2.666h-.881L33.443 117l-.573.659v1.508h-.732zm5.635.073c-.34 0-.638-.078-.892-.234a1.586 1.586 0 0 1-.592-.656 2.177 2.177 0 0 1-.21-.985c0-.377.07-.707.21-.99.14-.282.338-.501.592-.658a1.67 1.67 0 0 1 .892-.234c.341 0 .639.078.893.234.254.157.451.376.592.658.14.283.21.613.21.99 0 .376-.07.704-.21.985-.14.281-.338.499-.592.656a1.671 1.671 0 0 1-.893.234zm.003-.594c.22 0 .404-.059.549-.175a1.03 1.03 0 0 0 .322-.467c.07-.194.106-.408.106-.641 0-.232-.035-.445-.106-.64a1.049 1.049 0 0 0-.322-.471.843.843 0 0 0-.55-.177.856.856 0 0 0-.553.177 1.065 1.065 0 0 0-.325.471 1.88 1.88 0 0 0-.104.64c0 .233.035.447.104.641.071.194.18.35.325.467a.866.866 0 0 0 .554.175zm2.482.521v-3.637h.685v.578h.038a.879.879 0 0 1 .35-.462c.169-.113.36-.17.573-.17.044 0 .096.001.156.005.062.003.11.007.144.011v.677a1.663 1.663 0 0 0-.151-.026 1.451 1.451 0 0 0-.218-.016.923.923 0 0 0-.447.106.795.795 0 0 0-.422.713v2.221h-.708zm3.996.073a1.79 1.79 0 0 1-.926-.23 1.55 1.55 0 0 1-.596-.651 2.202 2.202 0 0 1-.209-.987c0-.372.07-.701.209-.985.14-.284.336-.506.587-.665.252-.159.548-.239.885-.239.206 0 .404.034.597.102.192.068.365.174.518.319.153.146.274.334.363.566.088.231.132.511.132.841v.251h-2.89v-.531h2.197c0-.186-.038-.351-.114-.495a.862.862 0 0 0-.798-.468.93.93 0 0 0-.52.146.993.993 0 0 0-.342.379 1.095 1.095 0 0 0-.118.504v.415c0 .243.043.45.128.62a.922.922 0 0 0 .362.391c.155.088.335.132.542.132.134 0 .257-.019.367-.057a.761.761 0 0 0 .471-.461l.67.121c-.053.197-.15.37-.289.518-.137.147-.31.261-.518.343a1.93 1.93 0 0 1-.708.121zm3.404.007c-.23 0-.439-.042-.625-.128a1.055 1.055 0 0 1-.443-.376 1.081 1.081 0 0 1-.16-.604c0-.205.039-.374.117-.506a.868.868 0 0 1 .32-.315c.134-.078.284-.136.45-.176.166-.039.334-.069.507-.089l.53-.062a.77.77 0 0 0 .296-.083c.061-.038.092-.099.092-.185v-.016c0-.207-.058-.367-.175-.481-.115-.113-.287-.17-.516-.17-.239 0-.426.053-.564.158a.86.86 0 0 0-.281.348l-.666-.151a1.28 1.28 0 0 1 .346-.535c.153-.137.33-.237.528-.298.199-.064.408-.095.627-.095.146 0 .3.017.462.052.164.033.317.095.46.185.143.09.26.218.352.386.092.165.137.381.137.646v2.415h-.691v-.498h-.028a.994.994 0 0 1-.206.27c-.092.089-.21.162-.353.221a1.377 1.377 0 0 1-.516.087zm.154-.568c.195 0 .363-.039.502-.116a.808.808 0 0 0 .43-.708v-.469a.357.357 0 0 1-.146.071 2.214 2.214 0 0 1-.244.055l-.268.04-.218.028a1.795 1.795 0 0 0-.376.088.64.64 0 0 0-.27.178.441.441 0 0 0-.1.303c0 .175.066.307.195.397.13.089.294.133.495.133z"/><path fill="#888" d="M13.054 132.318v.414h-1.716v-.414h1.716zm-1.202 3.182v-3.621c0-.182.043-.334.129-.456a.8.8 0 0 1 .333-.273 1.05 1.05 0 0 1 .433-.091 1.193 1.193 0 0 1 .464.083l-.14.422-.104-.031a.643.643 0 0 0-.17-.019c-.162 0-.278.041-.35.123-.07.081-.106.201-.106.358v3.505h-.489zm1.852 0v-3.182h.472v.481h.033a.761.761 0 0 1 .315-.383.92.92 0 0 1 .514-.148 3.747 3.747 0 0 1 .257.009v.497a1.958 1.958 0 0 0-.299-.033.864.864 0 0 0-.414.097.717.717 0 0 0-.39.649v2.013h-.488zm3.331.066c-.287 0-.54-.068-.756-.205a1.394 1.394 0 0 1-.505-.574 1.938 1.938 0 0 1-.18-.861c0-.332.06-.621.18-.868.121-.247.29-.439.505-.576.217-.137.469-.205.756-.205.287 0 .539.068.754.205.217.137.385.329.505.576.122.247.183.536.183.868a1.9 1.9 0 0 1-.183.861c-.12.246-.288.437-.505.574a1.375 1.375 0 0 1-.754.205zm0-.439a.838.838 0 0 0 .539-.168.99.99 0 0 0 .312-.441 1.68 1.68 0 0 0 .102-.592c0-.213-.034-.411-.102-.595a.997.997 0 0 0-.312-.445.833.833 0 0 0-.539-.17.834.834 0 0 0-.538.17.997.997 0 0 0-.313.445 1.708 1.708 0 0 0-.102.595c0 .212.034.41.102.592a.99.99 0 0 0 .313.441c.14.112.32.168.538.168zm2.153.373v-3.182h.472v.497h.042a.798.798 0 0 1 .32-.395.955.955 0 0 1 .533-.143c.21 0 .385.047.524.143a.934.934 0 0 1 .33.395h.033a.923.923 0 0 1 .366-.391 1.12 1.12 0 0 1 .587-.147c.284 0 .517.089.698.267.18.177.271.452.271.827v2.129h-.489v-2.129c0-.235-.064-.403-.192-.504a.712.712 0 0 0-.454-.151c-.224 0-.397.068-.52.203a.725.725 0 0 0-.184.51v2.071h-.497v-2.179a.571.571 0 0 0-.176-.437.63.63 0 0 0-.454-.168.676.676 0 0 0-.357.101.77.77 0 0 0-.265.282.831.831 0 0 0-.1.412v1.989h-.488z"/><path fill="#F7F7F8" d="M25.666 132.167A3.334 3.334 0 0 1 29 128.833h16.666A3.334 3.334 0 0 1 49 132.167v3.666a3.334 3.334 0 0 1-3.334 3.334H29a3.334 3.334 0 0 1-3.334-3.334v-3.666z"/><path fill="#3F3F50" d="M31.282 135.955v-4.546h.291v4.546h-.291zm.98-3.182a.556.556 0 0 0-.26-.419.99.99 0 0 0-.557-.149c-.16 0-.302.026-.422.078a.668.668 0 0 0-.28.215.512.512 0 0 0-.1.31c0 .097.023.181.069.251a.62.62 0 0 0 .181.172c.073.045.15.082.23.112.081.028.155.051.223.069l.37.099c.094.025.2.06.315.103.117.044.23.104.336.18a.832.832 0 0 1 .371.719.955.955 0 0 1-.155.532 1.054 1.054 0 0 1-.447.379c-.195.093-.433.14-.712.14-.26 0-.486-.042-.677-.126a1.073 1.073 0 0 1-.447-.352 1.002 1.002 0 0 1-.183-.524h.455a.568.568 0 0 0 .138.341.75.75 0 0 0 .31.199c.125.043.26.064.404.064a1.2 1.2 0 0 0 .453-.081.783.783 0 0 0 .317-.231.55.55 0 0 0 .118-.348.427.427 0 0 0-.101-.295.75.75 0 0 0-.267-.185 2.777 2.777 0 0 0-.357-.124l-.447-.128c-.284-.082-.51-.198-.675-.35a.766.766 0 0 1-.248-.594c0-.204.055-.382.165-.533.11-.153.26-.271.447-.355.188-.085.398-.128.63-.128.235 0 .443.042.625.126.183.083.327.196.434.341a.847.847 0 0 1 .17.492h-.426zm.95 1.981v-.362l1.599-2.528h.263v.561h-.178l-1.208 1.91v.029h2.152v.39h-2.627zm1.712.746v-3.636h.42v3.636h-.42zm2.775-3.807-1.172 4.354h-.384l1.172-4.354h.384zM40.638 133c-.04-.12-.09-.227-.155-.321a.983.983 0 0 0-.52-.4 1.19 1.19 0 0 0-.362-.053c-.215 0-.411.055-.588.167a1.15 1.15 0 0 0-.42.492c-.105.216-.157.482-.157.797 0 .315.053.58.158.797.105.217.248.381.428.492.18.111.382.167.607.167.209 0 .392-.045.55-.133a.947.947 0 0 0 .374-.38c.09-.165.135-.358.135-.581l.134.028H39.73v-.39h1.385v.39c0 .3-.064.56-.192.782a1.327 1.327 0 0 1-.526.515c-.222.12-.478.181-.767.181-.322 0-.604-.076-.848-.228a1.53 1.53 0 0 1-.569-.646c-.135-.279-.202-.611-.202-.994 0-.288.038-.546.115-.776a1.76 1.76 0 0 1 .33-.59c.143-.162.31-.286.505-.372a1.55 1.55 0 0 1 .64-.13c.193 0 .371.029.537.087a1.45 1.45 0 0 1 .774.618c.088.144.148.305.181.481h-.454zm1.13 2.5v-3.636h1.271c.253 0 .462.043.627.131a.86.86 0 0 1 .367.35.978.978 0 0 1 .121.485.802.802 0 0 1-.083.387.653.653 0 0 1-.217.241.98.98 0 0 1-.29.131v.036a.71.71 0 0 1 .336.117.85.85 0 0 1 .283.306.963.963 0 0 1 .113.486.979.979 0 0 1-.124.492.855.855 0 0 1-.392.346c-.18.085-.412.128-.698.128h-1.314zm.44-.391h.874c.287 0 .492-.055.612-.167a.534.534 0 0 0 .183-.408.65.65 0 0 0-.094-.341.686.686 0 0 0-.268-.252.84.84 0 0 0-.412-.096h-.895v1.264zm0-1.647h.817a.806.806 0 0 0 .359-.078.633.633 0 0 0 .255-.221.58.58 0 0 0 .096-.333.553.553 0 0 0-.167-.407c-.111-.113-.287-.169-.529-.169h-.83v1.208z"/></g><g filter="url(#k)"><rect width="92.5" height="61.667" x="101.5" y="85.667" fill="#fff" rx="6.667"/><rect width="92.083" height="61.25" x="101.708" y="85.875" stroke="#EEE" stroke-width=".417" rx="6.458"/><g clip-path="url(#l)"><path fill="#6DA544" d="M111.5 101.333a7.503 7.503 0 0 0 4.891 7.034l.652-7.034-.652-7.033a7.502 7.502 0 0 0-4.891 7.033z"/><path fill="#D80027" d="M126.5 101.333a7.5 7.5 0 0 0-10.108-7.033v14.067a7.5 7.5 0 0 0 10.108-7.034z"/><path fill="#FFDA44" d="M116.391 103.942a2.609 2.609 0 1 0 0-5.218 2.609 2.609 0 0 0 0 5.218z"/><path fill="#D80027" d="M114.924 100.029v1.63a1.467 1.467 0 1 0 2.935 0v-1.63h-2.935z"/><path fill="#F0F0F0" d="M116.391 102.148a.49.49 0 0 1-.489-.489v-.652h.979v.652a.49.49 0 0 1-.49.489z"/></g><path fill="#000" d="M112.033 119.167v-4.849h1.728c.377 0 .69.069.937.206.248.137.434.325.557.564.123.236.184.503.184.8 0 .298-.062.566-.187.805a1.357 1.357 0 0 1-.558.563c-.248.137-.56.206-.935.206h-1.189v-.62h1.122c.239 0 .432-.041.58-.123a.773.773 0 0 0 .327-.341 1.12 1.12 0 0 0 .104-.49c0-.183-.035-.346-.104-.488a.747.747 0 0 0-.329-.334c-.148-.08-.344-.12-.587-.12h-.919v4.221h-.731zm5.693.073a1.67 1.67 0 0 1-.892-.234 1.583 1.583 0 0 1-.592-.656 2.169 2.169 0 0 1-.211-.985c0-.377.07-.707.211-.99.14-.282.338-.501.592-.658a1.67 1.67 0 0 1 .892-.234c.341 0 .639.078.893.234.254.157.451.376.592.658.14.283.21.613.21.99 0 .376-.07.704-.21.985a1.59 1.59 0 0 1-.592.656 1.673 1.673 0 0 1-.893.234zm.003-.594a.852.852 0 0 0 .549-.175c.145-.117.252-.273.322-.467.071-.194.106-.408.106-.641 0-.232-.035-.445-.106-.64a1.054 1.054 0 0 0-.322-.471.841.841 0 0 0-.549-.177.854.854 0 0 0-.554.177 1.068 1.068 0 0 0-.325.471 1.905 1.905 0 0 0-.104.64c0 .233.035.447.104.641.071.194.18.35.325.467a.864.864 0 0 0 .554.175zm2.483.521v-3.637h.684v.578h.038a.878.878 0 0 1 .35-.462c.169-.113.36-.17.573-.17.044 0 .096.001.156.005.062.003.11.007.145.011v.677a1.697 1.697 0 0 0-.152-.026 1.454 1.454 0 0 0-.218-.016.923.923 0 0 0-.447.106.794.794 0 0 0-.422.713v2.221h-.707zm4.47-3.637v.568h-1.986v-.568h1.986zm-1.453-.871h.708v3.44c0 .137.02.241.061.31a.324.324 0 0 0 .159.14.65.65 0 0 0 .215.035.81.81 0 0 0 .149-.012c.043-.007.076-.014.1-.019l.128.585a1.457 1.457 0 0 1-.46.076 1.252 1.252 0 0 1-.52-.099.897.897 0 0 1-.391-.322.952.952 0 0 1-.149-.547v-3.587zm4.54 3v-2.129h.71v3.637h-.696v-.63h-.038a1.131 1.131 0 0 1-.402.485c-.183.128-.411.192-.684.192-.234 0-.441-.051-.621-.154a1.083 1.083 0 0 1-.421-.462c-.101-.203-.152-.455-.152-.755v-2.313h.708v2.228c0 .248.069.445.206.592a.7.7 0 0 0 .535.22.872.872 0 0 0 .725-.4.899.899 0 0 0 .13-.511zm3.186 2.947a2.18 2.18 0 0 1-.746-.114 1.437 1.437 0 0 1-.506-.3 1.266 1.266 0 0 1-.294-.41l.608-.251c.043.07.1.143.171.22.072.079.17.146.293.202.125.055.285.082.481.082.268 0 .49-.065.665-.196.175-.129.263-.336.263-.62v-.715h-.045a1.639 1.639 0 0 1-.185.258.998.998 0 0 1-.326.246c-.139.069-.32.104-.542.104-.288 0-.547-.067-.777-.201a1.424 1.424 0 0 1-.544-.599c-.133-.265-.199-.591-.199-.978 0-.386.065-.718.196-.994.133-.276.314-.488.545-.635.23-.148.491-.222.783-.222.226 0 .408.038.547.114a.994.994 0 0 1 .324.26c.079.099.14.187.183.263h.052v-.59h.694v3.717c0 .313-.073.569-.218.77-.145.2-.342.348-.59.445a2.278 2.278 0 0 1-.833.144zm-.007-2.081a.902.902 0 0 0 .516-.142.888.888 0 0 0 .322-.412c.074-.18.111-.395.111-.646 0-.245-.036-.46-.109-.647a.957.957 0 0 0-.319-.435.84.84 0 0 0-.521-.159.84.84 0 0 0-.533.166 1.002 1.002 0 0 0-.322.445 1.772 1.772 0 0 0-.106.63c0 .238.036.447.109.627.072.18.179.321.321.422a.901.901 0 0 0 .531.151zm3.655.722c-.23 0-.439-.042-.625-.128a1.057 1.057 0 0 1-.443-.376 1.084 1.084 0 0 1-.161-.604c0-.205.04-.374.119-.506a.868.868 0 0 1 .319-.315c.135-.078.284-.136.45-.176.166-.039.335-.069.507-.089l.53-.062a.766.766 0 0 0 .296-.083c.062-.038.092-.099.092-.185v-.016c0-.207-.058-.367-.175-.481-.115-.113-.287-.17-.516-.17-.238 0-.426.053-.563.158a.857.857 0 0 0-.282.348l-.665-.151a1.286 1.286 0 0 1 .873-.833c.199-.064.408-.095.628-.095.145 0 .299.017.461.052.164.033.318.095.46.185.143.09.261.218.352.386.092.165.138.381.138.646v2.415h-.692v-.498h-.028a1.01 1.01 0 0 1-.206.27 1.098 1.098 0 0 1-.353.221 1.372 1.372 0 0 1-.516.087zm.154-.568c.196 0 .363-.039.502-.116a.805.805 0 0 0 .431-.708v-.469a.361.361 0 0 1-.147.071 2.19 2.19 0 0 1-.244.055l-.267.04-.218.028a1.797 1.797 0 0 0-.377.088.642.642 0 0 0-.27.178.442.442 0 0 0-.099.303c0 .175.065.307.194.397.13.089.295.133.495.133zm3.291-4.361v4.849h-.708v-4.849h.708z"/><path fill="#888" d="M113.554 132.318v.414h-1.715v-.414h1.715zm-1.202 3.182v-3.621c0-.182.043-.334.129-.456a.794.794 0 0 1 .333-.273c.137-.061.281-.091.433-.091a1.192 1.192 0 0 1 .464.083l-.141.422-.103-.031a.648.648 0 0 0-.17-.019c-.162 0-.278.041-.35.123-.071.081-.106.201-.106.358v3.505h-.489zm1.852 0v-3.182h.472v.481h.033a.76.76 0 0 1 .315-.383.92.92 0 0 1 .514-.148 3.762 3.762 0 0 1 .257.009v.497a2.088 2.088 0 0 0-.114-.019 1.208 1.208 0 0 0-.185-.014.866.866 0 0 0-.414.097.717.717 0 0 0-.389.649v2.013h-.489zm3.331.066c-.287 0-.539-.068-.756-.205a1.393 1.393 0 0 1-.505-.574 1.926 1.926 0 0 1-.181-.861c0-.332.06-.621.181-.868s.29-.439.505-.576c.217-.137.469-.205.756-.205.287 0 .539.068.754.205.217.137.385.329.506.576.121.247.182.536.182.868 0 .328-.061.616-.182.861a1.381 1.381 0 0 1-.506.574 1.374 1.374 0 0 1-.754.205zm0-.439a.84.84 0 0 0 .539-.168.983.983 0 0 0 .312-.441 1.68 1.68 0 0 0 .102-.592c0-.213-.034-.411-.102-.595a.99.99 0 0 0-.312-.445.836.836 0 0 0-.539-.17.836.836 0 0 0-.539.17.998.998 0 0 0-.312.445 1.702 1.702 0 0 0-.102.595c0 .212.034.41.102.592a.99.99 0 0 0 .312.441.84.84 0 0 0 .539.168zm2.153.373v-3.182h.472v.497h.042a.795.795 0 0 1 .321-.395.955.955 0 0 1 .532-.143c.21 0 .385.047.524.143a.934.934 0 0 1 .33.395h.033a.921.921 0 0 1 .367-.391c.162-.098.358-.147.586-.147.284 0 .517.089.698.267.181.177.271.452.271.827v2.129h-.489v-2.129c0-.235-.064-.403-.192-.504a.714.714 0 0 0-.454-.151c-.224 0-.397.068-.52.203a.725.725 0 0 0-.184.51v2.071h-.497v-2.179a.57.57 0 0 0-.177-.437.628.628 0 0 0-.453-.168.674.674 0 0 0-.356.101.769.769 0 0 0-.266.282.834.834 0 0 0-.099.412v1.989h-.489z"/><path fill="#F7F7F8" d="M126.167 132.167a3.334 3.334 0 0 1 3.333-3.334h18.666a3.334 3.334 0 0 1 3.334 3.334v3.666a3.334 3.334 0 0 1-3.333 3.334H129.5a3.334 3.334 0 0 1-3.333-3.334v-3.666z"/><path fill="#3F3F50" d="M131.782 135.955v-4.546h.291v4.546h-.291zm.98-3.182a.557.557 0 0 0-.259-.419.993.993 0 0 0-.558-.149c-.161 0-.302.026-.422.078a.67.67 0 0 0-.281.215.514.514 0 0 0-.099.31c0 .097.023.181.069.251a.62.62 0 0 0 .181.172c.073.045.15.082.231.112.08.028.154.051.222.069l.369.099c.095.025.2.06.316.103.117.044.229.104.336.18a.83.83 0 0 1 .371.719.955.955 0 0 1-.155.532 1.05 1.05 0 0 1-.447.379c-.195.093-.433.14-.712.14-.26 0-.486-.042-.677-.126a.998.998 0 0 1-.63-.876h.455a.565.565 0 0 0 .138.341.754.754 0 0 0 .309.199c.126.043.261.064.405.064.168 0 .319-.027.453-.081a.795.795 0 0 0 .318-.231.55.55 0 0 0 .117-.348.425.425 0 0 0-.102-.295.744.744 0 0 0-.266-.185 2.763 2.763 0 0 0-.357-.124l-.447-.128c-.284-.082-.509-.198-.675-.35a.764.764 0 0 1-.248-.594c0-.204.055-.382.165-.533a1.09 1.09 0 0 1 .447-.355c.188-.085.398-.128.63-.128.235 0 .443.042.625.126.183.083.327.196.434.341a.853.853 0 0 1 .17.492h-.426zm2.314-.909v3.636h-.44v-3.175h-.021l-.888.59v-.448l.909-.603h.44zm2.154 3.686a1.363 1.363 0 0 1-.448-.086 1.065 1.065 0 0 1-.408-.275 1.42 1.42 0 0 1-.297-.527 2.692 2.692 0 0 1-.112-.838c0-.322.03-.607.091-.856.06-.25.148-.46.263-.63.114-.172.253-.302.415-.391.163-.089.348-.133.552-.133.204 0 .385.041.544.122.159.081.29.193.39.338.101.144.166.311.196.499h-.434a.8.8 0 0 0-.234-.407.65.65 0 0 0-.462-.161.76.76 0 0 0-.666.367c-.16.245-.242.589-.243 1.032h.029a1.06 1.06 0 0 1 .895-.483c.208 0 .398.052.571.156.173.103.312.246.416.428.104.181.156.389.156.623 0 .225-.05.431-.151.618a1.152 1.152 0 0 1-.424.444 1.195 1.195 0 0 1-.639.16zm0-.391a.734.734 0 0 0 .401-.112.844.844 0 0 0 .387-.719.844.844 0 0 0-.101-.41.78.78 0 0 0-.276-.297.73.73 0 0 0-.397-.11.743.743 0 0 0-.315.068.807.807 0 0 0-.255.181.887.887 0 0 0-.171.265.845.845 0 0 0 .32 1.019.733.733 0 0 0 .407.115zm3.105-3.466-1.172 4.354h-.384l1.172-4.354h.384zm2.939 1.307a1.256 1.256 0 0 0-.154-.321.98.98 0 0 0-.521-.4 1.186 1.186 0 0 0-.362-.053 1.07 1.07 0 0 0-.587.167 1.145 1.145 0 0 0-.421.492 1.829 1.829 0 0 0-.157.797c0 .315.053.58.159.797.105.217.247.381.427.492.18.111.383.167.608.167.208 0 .391-.045.55-.133a.947.947 0 0 0 .373-.38c.09-.165.135-.358.135-.581l.135.028h-1.094v-.39h1.385v.39c0 .3-.064.56-.192.782a1.327 1.327 0 0 1-.525.515c-.223.12-.479.181-.767.181-.322 0-.605-.076-.849-.228a1.526 1.526 0 0 1-.568-.646 2.263 2.263 0 0 1-.203-.994c0-.288.039-.546.116-.776.078-.231.188-.427.33-.59.142-.162.31-.286.504-.372a1.55 1.55 0 0 1 .641-.13c.192 0 .371.029.536.087a1.448 1.448 0 0 1 .775.618c.087.144.148.305.181.481h-.455zm1.13 2.5v-3.636h1.272c.253 0 .462.043.626.131a.86.86 0 0 1 .368.35c.08.145.121.307.121.485a.798.798 0 0 1-.084.387.655.655 0 0 1-.216.241.987.987 0 0 1-.29.131v.036a.715.715 0 0 1 .336.117.854.854 0 0 1 .282.306.96.96 0 0 1 .114.486.978.978 0 0 1-.125.492.853.853 0 0 1-.392.346c-.179.085-.411.128-.698.128h-1.314zm.441-.391h.873c.288 0 .492-.055.613-.167a.533.533 0 0 0 .183-.408.68.68 0 0 0-.363-.593.84.84 0 0 0-.412-.096h-.894v1.264zm0-1.647h.816a.808.808 0 0 0 .359-.078.634.634 0 0 0 .256-.221.58.58 0 0 0 .096-.333.555.555 0 0 0-.167-.407c-.112-.113-.288-.169-.529-.169h-.831v1.208z"/></g><g filter="url(#m)"><rect width="92.5" height="61.667" x="202" y="85.667" fill="#fff" rx="6.667"/><rect width="92.083" height="61.25" x="202.208" y="85.875" stroke="#EEE" stroke-width=".417" rx="6.458"/><g clip-path="url(#n)"><path fill="#F0F0F0" d="M219.5 108.833a7.5 7.5 0 1 0 0-15 7.5 7.5 0 1 0 0 15z"/><path fill="#D80027" d="M227 101.333a7.502 7.502 0 0 0-4.891-7.033v14.067a7.503 7.503 0 0 0 4.891-7.034z"/><path fill="#6DA544" d="M212 101.333a7.503 7.503 0 0 0 4.891 7.034V94.3a7.502 7.502 0 0 0-4.891 7.033z"/></g><path fill="#000" d="M213.264 114.318v4.849h-.731v-4.849h.731zm2.706 1.212v.568h-1.986v-.568h1.986zm-1.453-.871h.707v3.44a.62.62 0 0 0 .062.31.324.324 0 0 0 .159.14.65.65 0 0 0 .215.035.81.81 0 0 0 .149-.012c.043-.007.076-.014.1-.019l.127.585a1.437 1.437 0 0 1-.459.076c-.186.003-.36-.03-.521-.099a.894.894 0 0 1-.39-.322.945.945 0 0 1-.149-.547v-3.587zm3.294 4.588c-.23 0-.438-.042-.625-.128a1.054 1.054 0 0 1-.442-.376 1.076 1.076 0 0 1-.161-.604c0-.205.039-.374.118-.506a.871.871 0 0 1 .32-.315c.134-.078.284-.136.45-.176a4.42 4.42 0 0 1 .506-.089l.53-.062a.766.766 0 0 0 .296-.083c.062-.038.093-.099.093-.185v-.016c0-.207-.059-.367-.175-.481-.116-.113-.288-.17-.517-.17-.238 0-.426.053-.563.158a.857.857 0 0 0-.282.348l-.665-.151c.079-.221.194-.399.346-.535.153-.137.329-.237.528-.298a2.03 2.03 0 0 1 .627-.095c.145 0 .299.017.462.052.164.033.317.095.459.185.144.09.261.218.353.386.091.165.137.381.137.646v2.415h-.691v-.498h-.029a.99.99 0 0 1-.206.27 1.092 1.092 0 0 1-.352.221 1.381 1.381 0 0 1-.517.087zm.154-.568c.196 0 .363-.039.502-.116a.808.808 0 0 0 .431-.708v-.469a.355.355 0 0 1-.147.071 2.19 2.19 0 0 1-.244.055l-.267.04-.218.028a1.787 1.787 0 0 0-.376.088.642.642 0 0 0-.27.178.443.443 0 0 0-.1.303c0 .175.065.307.195.397a.852.852 0 0 0 .494.133zm3.292-4.361v4.849h-.708v-4.849h.708zm1.399 6.212a1.42 1.42 0 0 1-.483-.078l.171-.58c.129.035.245.05.346.045a.414.414 0 0 0 .267-.114.875.875 0 0 0 .208-.348l.088-.241-1.331-3.684h.758l.921 2.822h.038l.921-2.822h.76l-1.499 4.122c-.069.189-.158.35-.265.481a1.026 1.026 0 0 1-.384.298c-.148.066-.32.099-.516.099z"/><path fill="#888" d="M214.054 132.318v.414h-1.715v-.414h1.715zm-1.202 3.182v-3.621c0-.182.043-.334.129-.456a.794.794 0 0 1 .333-.273c.137-.061.281-.091.433-.091a1.192 1.192 0 0 1 .464.083l-.141.422-.103-.031a.648.648 0 0 0-.17-.019c-.162 0-.278.041-.35.123-.071.081-.106.201-.106.358v3.505h-.489zm1.852 0v-3.182h.472v.481h.033a.76.76 0 0 1 .315-.383.92.92 0 0 1 .514-.148 3.762 3.762 0 0 1 .257.009v.497a2.088 2.088 0 0 0-.114-.019 1.208 1.208 0 0 0-.185-.014.866.866 0 0 0-.414.097.717.717 0 0 0-.389.649v2.013h-.489zm3.331.066c-.287 0-.539-.068-.756-.205a1.393 1.393 0 0 1-.505-.574 1.926 1.926 0 0 1-.181-.861c0-.332.06-.621.181-.868s.29-.439.505-.576c.217-.137.469-.205.756-.205.287 0 .539.068.754.205.217.137.385.329.506.576.121.247.182.536.182.868 0 .328-.061.616-.182.861a1.381 1.381 0 0 1-.506.574 1.374 1.374 0 0 1-.754.205zm0-.439a.84.84 0 0 0 .539-.168.983.983 0 0 0 .312-.441 1.68 1.68 0 0 0 .102-.592c0-.213-.034-.411-.102-.595a.99.99 0 0 0-.312-.445.836.836 0 0 0-.539-.17.836.836 0 0 0-.539.17.998.998 0 0 0-.312.445 1.702 1.702 0 0 0-.102.595c0 .212.034.41.102.592a.99.99 0 0 0 .312.441.84.84 0 0 0 .539.168zm2.153.373v-3.182h.472v.497h.042a.795.795 0 0 1 .321-.395.955.955 0 0 1 .532-.143c.21 0 .385.047.524.143a.934.934 0 0 1 .33.395h.033a.921.921 0 0 1 .367-.391c.162-.098.358-.147.586-.147.284 0 .517.089.698.267.181.177.271.452.271.827v2.129h-.489v-2.129c0-.235-.064-.403-.192-.504a.714.714 0 0 0-.454-.151c-.224 0-.397.068-.52.203a.725.725 0 0 0-.184.51v2.071h-.497v-2.179a.57.57 0 0 0-.177-.437.628.628 0 0 0-.453-.168.674.674 0 0 0-.356.101.769.769 0 0 0-.266.282.834.834 0 0 0-.099.412v1.989h-.489z"/><path fill="#F7F7F8" d="M226.667 132.167a3.334 3.334 0 0 1 3.333-3.334h16.666a3.334 3.334 0 0 1 3.334 3.334v3.666a3.334 3.334 0 0 1-3.333 3.334H230a3.334 3.334 0 0 1-3.333-3.334v-3.666z"/><path fill="#3F3F50" d="M232.282 135.955v-4.546h.291v4.546h-.291zm.98-3.182a.557.557 0 0 0-.259-.419.993.993 0 0 0-.558-.149c-.161 0-.302.026-.422.078a.67.67 0 0 0-.281.215.514.514 0 0 0-.099.31c0 .097.023.181.069.251a.62.62 0 0 0 .181.172c.073.045.15.082.231.112.08.028.154.051.222.069l.369.099c.095.025.2.06.316.103.117.044.229.104.336.18a.83.83 0 0 1 .371.719.955.955 0 0 1-.155.532 1.05 1.05 0 0 1-.447.379c-.195.093-.433.14-.712.14-.26 0-.486-.042-.677-.126a.998.998 0 0 1-.63-.876h.455a.565.565 0 0 0 .138.341.754.754 0 0 0 .309.199c.126.043.261.064.405.064.168 0 .319-.027.453-.081a.795.795 0 0 0 .318-.231.55.55 0 0 0 .117-.348.425.425 0 0 0-.102-.295.744.744 0 0 0-.266-.185 2.763 2.763 0 0 0-.357-.124l-.447-.128c-.284-.082-.509-.198-.675-.35a.764.764 0 0 1-.248-.594c0-.204.055-.382.165-.533a1.09 1.09 0 0 1 .447-.355c.188-.085.398-.128.63-.128.235 0 .443.042.625.126.183.083.327.196.434.341a.853.853 0 0 1 .17.492h-.426zm2.172 2.777c-.208 0-.396-.042-.563-.125a1.048 1.048 0 0 1-.401-.34.932.932 0 0 1-.165-.494h.426a.583.583 0 0 0 .224.408c.134.107.293.16.479.16a.756.756 0 0 0 .398-.105.737.737 0 0 0 .275-.287.85.85 0 0 0 .101-.418.86.86 0 0 0-.104-.424.777.777 0 0 0-.698-.407 1.13 1.13 0 0 0-.343.052.958.958 0 0 0-.289.133l-.412-.05.22-1.789h1.889v.39h-1.52l-.128 1.073h.022a1.07 1.07 0 0 1 .632-.206 1.114 1.114 0 0 1 1.007.593c.1.183.151.393.151.628 0 .232-.053.439-.157.622a1.14 1.14 0 0 1-.426.429 1.209 1.209 0 0 1-.618.157zm3.099-3.857-1.172 4.354h-.384l1.172-4.354h.384zm2.939 1.307a1.258 1.258 0 0 0-.155-.321.977.977 0 0 0-.52-.4 1.19 1.19 0 0 0-.362-.053c-.216 0-.411.055-.588.167a1.159 1.159 0 0 0-.421.492c-.104.216-.156.482-.156.797 0 .315.053.58.158.797.106.217.248.381.428.492.18.111.382.167.607.167.209 0 .392-.045.551-.133a.947.947 0 0 0 .373-.38c.09-.165.135-.358.135-.581l.134.028h-1.093v-.39h1.385v.39c0 .3-.064.56-.192.782a1.33 1.33 0 0 1-.526.515c-.222.12-.478.181-.767.181-.322 0-.605-.076-.848-.228a1.535 1.535 0 0 1-.569-.646c-.135-.279-.202-.611-.202-.994 0-.288.038-.546.115-.776.079-.231.189-.427.331-.59.142-.162.31-.286.504-.372a1.55 1.55 0 0 1 .641-.13c.192 0 .37.029.536.087a1.448 1.448 0 0 1 .774.618c.088.144.148.305.181.481h-.454zm1.13 2.5v-3.636h1.271c.253 0 .462.043.627.131a.858.858 0 0 1 .367.35.978.978 0 0 1 .121.485.81.81 0 0 1-.083.387.658.658 0 0 1-.217.241.981.981 0 0 1-.289.131v.036a.708.708 0 0 1 .335.117.848.848 0 0 1 .283.306.97.97 0 0 1 .113.486.977.977 0 0 1-.124.492.858.858 0 0 1-.392.346c-.179.085-.412.128-.698.128h-1.314zm.44-.391h.874c.287 0 .492-.055.612-.167a.533.533 0 0 0 .183-.408.646.646 0 0 0-.094-.341.687.687 0 0 0-.268-.252.84.84 0 0 0-.412-.096h-.895v1.264zm0-1.647h.817a.808.808 0 0 0 .359-.078.631.631 0 0 0 .255-.221.58.58 0 0 0 .096-.333.55.55 0 0 0-.167-.407c-.111-.113-.287-.169-.529-.169h-.831v1.208z"/></g><path fill="#fff" fill-opacity=".4" d="M-1 0h257v163H-1z"/><g filter="url(#o)"><path fill="#6DA544" fill-rule="evenodd" d="M127 58c-13.255 0-24 10.745-24 24s10.745 24 24 24 24-10.745 24-24-10.745-24-24-24zm9.057 19.52a2.4 2.4 0 1 0-3.714-3.04l-9.121 11.148-2.925-2.925a2.4 2.4 0 0 0-3.394 3.394l4.8 4.8a2.399 2.399 0 0 0 3.554-.177l10.8-13.2z" clip-rule="evenodd"/></g></g><defs><filter id="b" width="94.167" height="63.333" x="-76.333" y="15.583" color-interpolation-filters="sRGB" filterUnits="userSpaceOnUse"><feFlood flood-opacity="0" result="BackgroundImageFix"/><feColorMatrix in="SourceAlpha" result="hardAlpha" values="0 0 0 0 0 0 0 0 0 0 0 0 0 0 0 0 0 0 127 0"/><feOffset dy=".417"/><feGaussianBlur stdDeviation=".417"/><feComposite in2="hardAlpha" operator="out"/><feColorMatrix values="0 0 0 0 0.894118 0 0 0 0 0.898039 0 0 0 0 0.905882 0 0 0 0.24 0"/><feBlend in2="BackgroundImageFix" result="effect1_dropShadow_628_70011"/><feBlend in="SourceGraphic" in2="effect1_dropShadow_628_70011" result="shape"/></filter><filter id="c" width="94.167" height="63.333" x="24.167" y="15.583" color-interpolation-filters="sRGB" filterUnits="userSpaceOnUse"><feFlood flood-opacity="0" result="BackgroundImageFix"/><feColorMatrix in="SourceAlpha" result="hardAlpha" values="0 0 0 0 0 0 0 0 0 0 0 0 0 0 0 0 0 0 127 0"/><feOffset dy=".417"/><feGaussianBlur stdDeviation=".417"/><feComposite in2="hardAlpha" operator="out"/><feColorMatrix values="0 0 0 0 0.894118 0 0 0 0 0.898039 0 0 0 0 0.905882 0 0 0 0.24 0"/><feBlend in2="BackgroundImageFix" result="effect1_dropShadow_628_70011"/><feBlend in="SourceGraphic" in2="effect1_dropShadow_628_70011" result="shape"/></filter><filter id="e" width="94.167" height="63.333" x="124.667" y="15.583" color-interpolation-filters="sRGB" filterUnits="userSpaceOnUse"><feFlood flood-opacity="0" result="BackgroundImageFix"/><feColorMatrix in="SourceAlpha" result="hardAlpha" values="0 0 0 0 0 0 0 0 0 0 0 0 0 0 0 0 0 0 127 0"/><feOffset dy=".417"/><feGaussianBlur stdDeviation=".417"/><feComposite in2="hardAlpha" operator="out"/><feColorMatrix values="0 0 0 0 0.894118 0 0 0 0 0.898039 0 0 0 0 0.905882 0 0 0 0.24 0"/><feBlend in2="BackgroundImageFix" result="effect1_dropShadow_628_70011"/><feBlend in="SourceGraphic" in2="effect1_dropShadow_628_70011" result="shape"/></filter><filter id="g" width="94.167" height="63.333" x="225.167" y="15.583" color-interpolation-filters="sRGB" filterUnits="userSpaceOnUse"><feFlood flood-opacity="0" result="BackgroundImageFix"/><feColorMatrix in="SourceAlpha" result="hardAlpha" values="0 0 0 0 0 0 0 0 0 0 0 0 0 0 0 0 0 0 127 0"/><feOffset dy=".417"/><feGaussianBlur stdDeviation=".417"/><feComposite in2="hardAlpha" operator="out"/><feColorMatrix values="0 0 0 0 0.894118 0 0 0 0 0.898039 0 0 0 0 0.905882 0 0 0 0.24 0"/><feBlend in2="BackgroundImageFix" result="effect1_dropShadow_628_70011"/><feBlend in="SourceGraphic" in2="effect1_dropShadow_628_70011" result="shape"/></filter><filter id="i" width="94.167" height="63.333" x=".167" y="85.25" color-interpolation-filters="sRGB" filterUnits="userSpaceOnUse"><feFlood flood-opacity="0" result="BackgroundImageFix"/><feColorMatrix in="SourceAlpha" result="hardAlpha" values="0 0 0 0 0 0 0 0 0 0 0 0 0 0 0 0 0 0 127 0"/><feOffset dy=".417"/><feGaussianBlur stdDeviation=".417"/><feComposite in2="hardAlpha" operator="out"/><feColorMatrix values="0 0 0 0 0.894118 0 0 0 0 0.898039 0 0 0 0 0.905882 0 0 0 0.24 0"/><feBlend in2="BackgroundImageFix" result="effect1_dropShadow_628_70011"/><feBlend in="SourceGraphic" in2="effect1_dropShadow_628_70011" result="shape"/></filter><filter id="k" width="94.167" height="63.333" x="100.667" y="85.25" color-interpolation-filters="sRGB" filterUnits="userSpaceOnUse"><feFlood flood-opacity="0" result="BackgroundImageFix"/><feColorMatrix in="SourceAlpha" result="hardAlpha" values="0 0 0 0 0 0 0 0 0 0 0 0 0 0 0 0 0 0 127 0"/><feOffset dy=".417"/><feGaussianBlur stdDeviation=".417"/><feComposite in2="hardAlpha" operator="out"/><feColorMatrix values="0 0 0 0 0.894118 0 0 0 0 0.898039 0 0 0 0 0.905882 0 0 0 0.24 0"/><feBlend in2="BackgroundImageFix" result="effect1_dropShadow_628_70011"/><feBlend in="SourceGraphic" in2="effect1_dropShadow_628_70011" result="shape"/></filter><filter id="m" width="94.167" height="63.333" x="201.167" y="85.25" color-interpolation-filters="sRGB" filterUnits="userSpaceOnUse"><feFlood flood-opacity="0" result="BackgroundImageFix"/><feColorMatrix in="SourceAlpha" result="hardAlpha" values="0 0 0 0 0 0 0 0 0 0 0 0 0 0 0 0 0 0 127 0"/><feOffset dy=".417"/><feGaussianBlur stdDeviation=".417"/><feComposite in2="hardAlpha" operator="out"/><feColorMatrix values="0 0 0 0 0.894118 0 0 0 0 0.898039 0 0 0 0 0.905882 0 0 0 0.24 0"/><feBlend in2="BackgroundImageFix" result="effect1_dropShadow_628_70011"/><feBlend in="SourceGraphic" in2="effect1_dropShadow_628_70011" result="shape"/></filter><filter id="o" width="94.08" height="94.08" x="79.96" y="46.48" color-interpolation-filters="sRGB" filterUnits="userSpaceOnUse"><feFlood flood-opacity="0" result="BackgroundImageFix"/><feColorMatrix in="SourceAlpha" result="hardAlpha" values="0 0 0 0 0 0 0 0 0 0 0 0 0 0 0 0 0 0 127 0"/><feOffset dy="11.52"/><feGaussianBlur stdDeviation="11.52"/><feComposite in2="hardAlpha" operator="out"/><feColorMatrix values="0 0 0 0 0.427451 0 0 0 0 0.647059 0 0 0 0 0.266667 0 0 0 0.24 0"/><feBlend in2="BackgroundImageFix" result="effect1_dropShadow_628_70011"/><feBlend in="SourceGraphic" in2="effect1_dropShadow_628_70011" result="shape"/></filter><clipPath id="a"><path fill="#fff" d="M0 0h256v163H0z"/></clipPath><clipPath id="d"><path fill="#fff" d="M35 24.167h15v15H35z"/></clipPath><clipPath id="f"><path fill="#fff" d="M135.5 24.167h15v15h-15z"/></clipPath><clipPath id="h"><path fill="#fff" d="M236 24.167h15v15h-15z"/></clipPath><clipPath id="j"><path fill="#fff" d="M11 93.833h15v15H11z"/></clipPath><clipPath id="l"><path fill="#fff" d="M111.5 93.833h15v15h-15z"/></clipPath><clipPath id="n"><path fill="#fff" d="M212 93.833h15v15h-15z"/></clipPath></defs></svg>